**ABCDEFGHIJKLMNOPQRSTUVWXYZabcdefghijklmnopqrstuvwxyz**************************
**PARASOLID !"#$%&'()*+,-./:;<=>?@[\]^_`{|}~0123456789**************************
**PART1;
MC=unknown;
MC_MODEL=unknown;
MC_ID=unknown;
OS=unknown;
OS_RELEASE=unknown;
FRU=Parasolid 37.0.173;
APPL=Onshape;
SITE=unknown;
USER=unknown;
FORMAT=text;
GUISE=transmit;
KEY=BTGapi::writeModels_.xmt;
FILE=BTGapi::writeModels_.xmt;
DATE=2024-12-24T11:44:24 (UTC);
**PART2;
SCH=SCH_3700173_36001;
USFLD_SIZE=0;
**PART3;
**END_OF_HEADER*****************************************************************
T51 : TRANSMIT FILE created by modeller version 370017323 SCH_3700173_36001_1300
6231 0 12 36 CCCI7 lattice222 0 CCCI4 mesh1006 0 I8 polyline1008 0 CCCCCCCDI5 ow
ner1040 0 CCCI16 boundary_lattice222 0 CCCI13 boundary_mesh1006 0 I17 boundary_p
olyline1008 0 CCCA16 index_map_offset0 0 1 dA9 index_map82 0 A17 node_id_index_m
ap82 0 A20 schema_embedding_map82 0 A5 child12 0 A14 lowest_node_id0 0 1 dA16 me
sh_offset_data206 0 Z1 1380 2 3 0 0 0 0 0 0 0 1e3 1e-8 0 4 5 1 0 1 2 6 0 7 8 9 0
 0 10 11 12 0 0 0 0 0 0 0 81 255 1 2 1380 13 1 14 0 0 0 15 70 11 CI9 list_type0
 0 1 uI10 notransmit0 0 1 lCCCDCCDI12 finger_index0 0 1 dI12 finger_block1012 0
 CZ3 0 4 T1 0 0 3 20 1 16 16 13 255 6 105 0 1 0 17 0 0 18 0 51 255 7 843 0 1 19
 0 20 +.0175 -.0095 -.0117 -1 0 0 .0065 0 0 1 31 255 8 958 0 21 22 0 0 +-.0057 -
.0195 -.0042 0 1 -612323399573677e-31 0 612323399573677e-31 1 75e-5 29 255 9 724
 0 12 23 0 -.0075 -.0117365109661591 -.00722808556675664 19 9 CCCCCCI5 frame230
 0 CA5 owner12 0 Z10 104 0 1 18 0 24 0 V0 16 255 11 753 0 ?25 0 26 27 0 0 1 18 2
55 12 721 0 28 0 29 9 ?1 17 255 28 0 30 31 32 12 33 34 0 35 +18 29 717 0 33 12 3
6 23 ?1 17 33 0 37 38 39 29 28 34 0 40 -18 36 707 0 41 29 42 43 ?1 29 23 720 0 2
9 43 9 -.0075 -.0095 -.00522565371923051 29 43 710 0 36 44 23 -.0075 -.011736510
9661591 -.0481719144332433 29 44 690 0 42 45 43 .0075 -.0095 -.0052256537192305
 18 42 687 0 46 36 47 44 ?1 29 45 686 0 47 48 44 .0075 -.0117365109661591 -.0072
2808556675664 18 47 683 0 49 42 50 45 ?1 29 48 682 0 50 51 45 .0075 -.0117365109
661591 -.0481719144332433 18 50 679 0 52 47 53 48 ?1 29 51 666 0 53 54 48 .0075
 -.0095 -.0501743462807695 18 53 663 0 55 50 56 51 ?1 29 54 662 0 56 57 51 -.007
5 -.0095 -.0501743462807695 18 56 659 0 58 53 59 54 ?1 29 57 204 0 60 61 54 -.00
75 -.0195 -.0022 18 60 181 0 62 63 64 57 ?1 29 61 205 0 64 65 57 -.0075 -.0095 -
.0022 18 64 185 0 66 60 67 61 ?1 29 65 206 0 67 68 61 .0075 -.0095 -.0022 18 67
 189 0 69 64 70 65 ?1 29 68 207 0 70 71 65 .0075 -.0195 -.0022 18 70 193 0 72 67
 73 68 ?1 29 71 100 0 59 74 68 -.0075 -.0195 -.0532 18 59 98 0 75 56 76 71 ?1 29
 74 95 0 76 77 71 -.0075 -.0095 -.0532 18 76 93 0 78 59 79 74 ?1 29 77 70 0 79 8
0 74 .0075 -.0095 -.0532 18 79 68 0 81 76 63 77 ?1 29 80 65 0 63 82 77 .0075 -.0
195 -.0532 18 63 63 0 83 79 60 80 ?1 29 82 603 0 73 84 80 0 -.0145 -.0437 18 73
 497 0 85 70 86 82 ?1 29 84 604 0 86 87 82 .0075 -.0145 -.0437 18 86 500 0 88 73
 89 84 ?1 29 87 606 0 89 90 84 0 -.0145 -.0117 18 89 513 0 91 86 92 87 ?1 29 90
 607 0 92 93 87 .0075 -.0145 -.0117 18 92 503 0 94 89 95 90 ?1 29 93 609 0 95 96
 90 -.0075 -.0145 -.0437 18 95 498 0 97 92 98 93 ?1 29 96 611 0 98 0 93 -.0075 -
.0145 -.0117 18 98 514 0 99 95 0 96 ?1 17 99 0 100 35 25 98 101 102 0 103 +15 25
5 100 543 0 35 104 0 17 35 0 100 25 99 12 31 105 0 39 +17 25 0 100 99 35 89 39 1
1 0 106 +17 101 0 107 108 103 89 99 102 0 109 -16 102 470 0 ?99 110 111 112 110
 110 1 17 103 0 107 101 113 98 114 115 0 31 +15 107 535 0 108 116 0 17 113 0 107
 103 117 95 118 119 0 114 +17 114 0 30 120 31 95 103 115 0 0 -16 115 484 0 ?103
 111 105 121 0 0 1 17 31 0 30 114 28 98 35 105 0 0 -15 30 352 0 120 122 0 16 105
 489 0 ?35 115 123 124 0 0 1 16 123 1006 0 ?125 105 21 126 0 0 1 31 124 597 0 10
5 126 121 0 +-.0075 -.0095 -.0117 -1 0 0 0 0 1 .005 38 12 CCCCCCCCCCCA17 interse
ction_data204 0 Z126 1166 0 123 127 124 0 +128 129 130 131 131 132 30 255 121 59
5 0 115 124 133 0 +-.0075 -.0145 -.0197 0 0 1 31 133 594 0 111 121 134 0 +-.0075
 -.0095 -.0437 -1 0 0 0 0 1 .005 16 111 708 0 ?97 102 115 133 0 0 1 30 134 592 0
 119 133 112 0 +.0175 -.0145 -.0437 -1 0 0 16 119 411 0 ?113 135 110 134 135 135
 1 30 112 590 0 102 134 136 0 +.0175 -.0145 -.0117 -1 0 0 133 255 136 15 0 137 1
12 138 0 +138 .0075 -.0195 -.0532 -.0075 -.0195 -.0532 -.018 -.003 16 137 11 0 ?
139 140 141 136 0 0 1 30 138 14 0 1 136 142 143 +-.0105 -.0195 -.0532 -1 0 0 30
 142 20 0 140 138 144 0 +.0075 -.0145 -.0532 0 1 -612323399573677e-31 141 255 14
3 136 143 143 138 16 140 18 0 ?145 146 137 142 0 0 1 31 144 25 0 146 142 147 0 +
0 -.006375 -.0532 0 612323399573677e-31 1 0 -1 612323399573677e-31 .008125 16 14
6 23 0 ?148 149 140 144 0 0 1 31 147 35 0 149 144 150 0 +-1224646799147352e-34 -
.017 -.0532 0 612323399573677e-31 1 0 -1 612323399573677e-31 .002 16 149 33 0 ?1
51 152 146 147 0 0 1 30 150 55 0 152 147 153 0 +-.0075 -.0145 -.0532 0 1 -612323
399573677e-31 16 152 53 0 ?154 155 149 150 0 0 1 133 153 203 0 156 150 157 0 +15
7 .0075 -.0195 -.0022 -.0075 -.0195 -.0022 -.018 -.003 16 156 175 0 ?158 159 135
 153 0 0 1 30 157 202 0 1 153 160 161 +-.0105 -.0195 -.0022 -1 0 0 30 160 201 0
 159 157 162 0 +.0075 -.0145 -.0022 0 1 -612323399573677e-31 141 161 153 161 161
 157 16 159 171 0 ?163 164 156 160 0 0 1 31 162 200 0 164 160 165 0 +0 -.006375
 -.0022 0 612323399573677e-31 1 0 -1 612323399573677e-31 .008125 16 164 165 0 ?1
66 167 159 162 0 0 1 31 165 199 0 167 162 168 0 +-1224646799147352e-34 -.017 -.0
022 0 612323399573677e-31 1 0 -1 612323399573677e-31 .002 16 167 159 0 ?169 141
 164 165 0 0 1 30 168 198 0 141 165 170 0 +-.0075 -.0145 -.0022 0 1 -61232339957
3677e-31 16 141 155 0 ?171 137 167 168 0 0 1 30 170 229 0 172 168 173 0 +-.0075
 -.0195 -.0532 0 612323399573677e-31 1 16 172 208 0 ?62 174 175 170 0 0 1 30 173
 230 0 176 170 177 0 +-.0075 -.0095 -.0532 0 612323399573677e-31 1 16 176 209 0
 ?178 179 174 173 174 174 1 30 177 231 0 180 173 181 0 +.0075 -.0095 -.0532 0 61
2323399573677e-31 1 16 180 210 0 ?182 175 155 177 155 155 1 30 181 232 0 175 177
 183 0 +.0075 -.0195 -.0532 0 612323399573677e-31 1 16 175 211 0 ?72 172 180 181
 0 0 1 31 183 322 0 179 181 184 0 +.0075 -.0095 -.0117 1 0 0 0 0 -1 .005 16 179
 684 0 ?94 185 176 183 0 0 1 30 184 326 0 185 183 186 0 +.0075 -.0145 -.0532 0 0
 -1 16 185 324 0 ?88 187 179 184 0 0 1 31 186 329 0 187 184 188 0 +.0075 -.0095
 -.0437 1 0 0 0 0 -1 .005 16 187 327 0 ?189 190 185 186 0 0 1 38 188 669 0 190 1
86 191 0 +128 192 193 194 195 196 16 190 667 0 ?197 198 187 188 0 0 1 38 191 675
 0 198 188 199 0 -200 128 201 202 203 204 51 128 226 0 205 206 207 208 +0 -.0063
75 -.0532 0 612323399573677e-31 1 .008125 0 -1 612323399573677e-31 59 255 192 67
0 0 1 209 200 210 +1 211 40 255 6 193 0 1 6 .000811981273895663 .358713672173487
 ??-.0075 -.0095 -.0501743462807695 -.00747433043066643 -.00956090797312379 -.05
01675111802665 -.00658595659386339 -.01113323504502954 -.0496951206346743 -.0048
2129703368358 -.01291493271471456 -.0482699340625032 -.00343506255330077 -.01373
814947932682 -.0470042384967658 -129291241022757e-19 -.0144999897130858 -.043712
58643437545 41 3 CI8 term_use0 0 1 cCZ1 194 L?-.0075 -.0095 -.0501743462807695 4
1 2 195 TF0 -.0145 -.0437 -129291241022757e-19 -.0144999897130858 -.043712586434
37545 204 2 17 INTERSECTION_DATA17 Intersection data7 uv_type0 0 1 u6 values0 1
 1 fT14 196 2 5.10718010008445 .003025653719230525 5.11531503974161 .00303248881
9733515 5.33804472106953 .003504879365325745 5.64792084559602 .0049300659374968
 5.84667791638018 .00619576150323421 6.28159402969544 .00948741356562456 0 .0095
 50 255 209 228 0 212 207 192 0 +-.0105 -.0195 -.0532 0 1 -612323399573677e-31 0
 612323399573677e-31 1 59 200 676 0 1 192 213 214 +1 215 141 210 188 210 210 192
 56 255 211 803 0 216 217 218 219 +R128 220 221 .0015 .0015 1 1 0 0 0 0 14 255 2
16 791 0 ?222 223 224 6 211 +0 0 222 223 24 51 217 780 0 1 225 211 226 +.0175 -.
0095 -.0437 -1 0 0 .0065 0 0 1 51 218 802 0 1 211 227 228 +.0175 -.0095 -.0437 -
1 0 0 .0065 0 0 1 141 219 192 229 230 211 51 220 581 0 231 232 233 234 +.0175 -.
0095 -.0437 -1 0 0 .005 0 0 1 38 221 804 0 1 235 236 237 -218 227 238 239 240 24
1 38 235 783 0 1 27 221 242 +225 217 243 244 245 246 38 236 825 0 1 221 247 248
 -249 250 251 252 253 254 141 237 211 237 237 221 51 227 801 0 1 218 255 256 +0
 -.006375 -.0532 0 612323399573677e-31 1 .009625 0 -1 612323399573677e-31 40 6 2
38 0 1 6 .000949797456020647 .38917611085592 ??-1515936110715655e-20 -.015999988
06200665 -.04371245767919085 -.004069227947756295 -.0150975001524333 -.047004238
4967658 -.00571138263990209 -.01412230490820034 -.0482699340625032 -.00780182550
349972 -.0120116784379581 -.0496951206346743 -.00885420681786639 -.0101490755989
3126 -.0501675111802665 -.00948009458482927 -.00803886046971816 -.05003364596998
03 41 2 239 TF0 -.016 -.0437 -1515936110715655e-20 -.01599998806200665 -.0437124
5767919085 41 1 240 L?-.00948009458482927 -.00803886046971816 -.0500336459699803
 204 28 241 4 4.71238898038469 .0175 0 .0095 4.710472413182 .01751515936110715 6
.28161030797184 .00948754232080914 4.179127838723935 .0215692279477563 5.8466779
1638018 .00619576150323421 3.93268804475059 .0232113826399021 5.64792084559602 .
0049300659374968 3.53833097075822 .02530182550349975 5.33804472106953 .003504879
365325745 3.241617143772775 .0263542068178664 5.11531503974161 .0030324888197335
15 2.91486442314002 .0269800945848293 4.8861303773709 .003166354030019705 56 255
 824 0 222 227 249 257 +R128 258 236 .0015 .0015 1 1 0 0 0 0 141 256 221 256 256
 227 14 222 812 0 ?259 216 260 6 255 +0 0 259 216 24 51 249 823 0 1 255 250 261
 +.0175 -.0095 -.0117 -1 0 0 .0065 0 0 1 141 257 199 262 263 255 51 258 578 0 10
4 233 264 265 +.0175 -.0095 -.0117 -1 0 0 .005 0 0 1 14 104 540 0 ?266 116 100 6
 258 -266 266 266 116 24 50 233 580 0 116 220 258 0 +.0175 -.0145 -.0197 0 -1 0
 0 0 -1 50 264 3 0 267 258 268 0 +123750000000089e-20 -.01500125 -.0532 0 612323
399573677e-31 1 1 0 0 141 265 27 269 270 258 38 27 755 0 11 271 235 0 +258 272 2
73 274 275 276 141 269 271 277 265 258 141 270 255 265 277 258 141 277 278 270 2
69 258 56 278 845 0 259 250 19 279 +R128 258 247 .0015 .0015 1 1 0 0 0 0 14 259
 833 0 ?280 222 37 6 278 +0 0 280 222 24 51 250 822 0 1 249 278 281 +0 -.006375
 -.0532 0 612323399573677e-31 1 .009625 0 -1 612323399573677e-31 51 19 844 0 1 2
78 7 282 +0 -.006375 -.0532 0 612323399573677e-31 1 .009625 0 -1 612323399573677
e-31 141 279 283 284 285 278 38 247 846 0 1 236 286 287 +19 7 288 289 290 291 31
 286 937 0 292 247 293 0 +-.0057 -.0195 -.0512 0 1 -612323399573677e-31 0 612323
399573677e-31 1 75e-5 141 287 278 287 287 247 40 6 288 0 1 6 .000949797456019492
 .3891761108559195 ??-151593611072327e-19 -.01599998806200665 -.0116875423208092
 -.00406922794775407 -.01509750015243435 -.00839576150323595 -.00571138263990209
 -.01412230490820032 -.00713006593749677 -.00780182550349973 -.0120116784379581
 -.00570487936532572 -.00885420681786639 -.01014907559893126 -.0052324888197335
 -.00948009458482927 -.00803886046971816 -.00536635403001968 41 2 289 TF0 -.016
 -.0117 -151593611072327e-19 -.01599998806200665 -.0116875423208092 41 1 290 L?-
.00948009458482927 -.00803886046971816 -.00536635403001968 204 28 291 4 0 .0415
 4.71238898038469 .0175 6.28161030797183 .0415124576791908 4.71430554758737 .017
51515936110725 5.84667791638043 .04480423849676405 5.24565012204513 .02156922794
775405 5.64792084559602 .0460699340625032 5.49208991601879 .0232113826399021 5.3
3804472106953 .0474951206346743 5.88644699001116 .02530182550349975 5.1153150397
4161 .0479675111802665 6.1831608169966 .0263542068178664 4.8861303773709 .047833
6459699803 .226728230449773 .0269800945848293 16 292 1111 0 ?294 295 0 286 0 0 1
 31 293 944 0 296 286 22 0 +.0057 -.0195 -.0512 0 1 -612323399573677e-31 0 61232
3399573677e-31 1 75e-5 16 296 1075 0 ?297 298 295 293 0 0 1 31 22 951 0 299 293
 8 0 +.0057 -.0195 -.0042 0 1 -612323399573677e-31 0 612323399573677e-31 1 75e-5
 16 299 1039 0 ?300 301 298 22 0 0 1 17 300 0 302 300 300 0 303 299 0 0 +16 301
 1042 0 ?304 21 299 127 0 0 1 16 298 1078 0 ?305 299 296 306 0 0 1 17 305 0 307
 305 305 0 308 298 0 0 +38 306 1168 0 298 309 127 0 +128 310 311 312 312 313 38
 309 1169 0 295 0 306 0 +128 232 314 315 315 316 38 127 1167 0 301 306 126 0 +12
8 317 318 319 319 320 51 310 1163 0 321 0 317 322 +.0057 .0046 -.0512 0 -1 61232
3399573677e-31 75e-5 0 -612323399573677e-31 -1 40 21 311 0 1 21 853411749407604e
-19 .3951423373068125 ??.0057 -.01216513169107578 -.05195 .00604479083668421 -.0
1180419227332562 -.0518660475050164 .00627289206175822 -.01153895683381752 -.051
6840399627866 .00638213372928164 -.01140331920840012 -.0515117588416971 .0064356
3188598362 -.0113346640237128 -.0513461017738571 .00644993812743906 -.0113160447
4298786 -.0511903664641385 .0064317606314335 -.01133968329100076 -.0510356029857
812 .00637064644410003 -.0114178651463504 -.0508642421303737 .00623346418798268
 -.01158648243949238 -.0506728226483052 .00596816145606555 -.01188831786081064 -
.0504995791026241 .00565377782279685 -.01221027388649842 -.0504514256814887 .005
35921628278009 -.01248191622952082 -.0505318933782114 .00515456851059322 -.01265
560892506458 -.0506852141315425 .00502613803651401 -.01275885161465296 -.0508707
431790125 .00495615189900223 -.01281333700220924 -.0511041354985305 .00495938356
371902 -.0128108480146686 -.0513182678921367 .00501521315684076 -.01276743787544
716 -.0515058872005102 .00511774579808572 -.0126856499622603 -.0516727367601035
 .00530796950077406 -.01252651077206668 -.051839384147189 .0055875417539597 -.01
22737288586404 -.0519415208310611 .0057 -.01216513169107578 -.05195 41 1 312 H?.
0057 -.01216513169107578 -.05195 204 84 313 4 .777554054653599 .00125 0 .0167651
316910758 .838998461388503 .00133395249498358 .477681136350888 .0164041922733256
5 .882057608073962 .001515960037213435 .869267013121351 .01613895683381755 .9034
92954650001 .00168824115830288 1.142107694942306 .01600331920840015 .91420535651
4698 .001853898226142945 1.374740375659182 .0159346640237128 .91709529739382 .00
200963353586145 1.583641394504205 .01591604474298785 .91342520357748 .0021643970
1421875 1.791786700384115 .01593968329100075 .901211737308451 .00233575786962629
5 2.034962283299885 .0160178651463504 .874457412468265 .00252717735169483 2.3502
67169389715 .0161864824394924 .824992876369488 .002700420897375865 2.77595099650
024 .01648831786081065 .769602171455601 .00274857431851126 3.2032613036383 .0168
1027388649845 .720280929276235 .00266810662178861 3.613266826675335 .01708191622
95208 .687242989125843 .002514785868457465 3.955887807006565 .0172556089250646 .
666961655966139 .002329256820987515 4.25789346987844 .01735885161465295 .6560453
53826728 .002095864501469535 4.58421901366613 .01741333700220925 .65654739176461
4 .0018817321078633 4.87074045623449 .0174108480146686 .665251476023984 .0016941
1279948975 5.13248661552239 .01736743787544715 .681394073165637 .001527263239896
49 5.39434875155657 .0172856499622603 .711919908166751 .001360615852810956 5.733
16172602104 .0171265107720667 .75831269645212 .00125847916893891 6.1326733431892
 .0168737288586404 .777554054653599 .00125 6.28318530717959 .0167651316910758 14
 321 1097 0 ?323 280 324 6 310 -0 0 323 280 24 51 317 1160 0 323 310 129 325 +.0
057 .0046 -.0042 0 -1 612323399573677e-31 75e-5 0 -612323399573677e-31 -1 141 32
2 306 322 322 310 14 323 1061 0 ?326 321 327 6 317 -0 0 326 321 24 51 129 1157 0
 326 317 232 328 +-.0057 .0046 -.0042 0 -1 612323399573677e-31 75e-5 0 -61232339
9573677e-31 -1 141 325 127 325 325 317 14 326 1025 0 ?0 323 329 6 129 -0 0 0 323
 24 51 232 1154 0 280 129 220 330 +-.0057 .0046 -.0512 0 -1 612323399573677e-31
 75e-5 0 -612323399573677e-31 -1 141 328 126 328 328 129 14 280 1133 0 ?321 259
 331 6 232 -0 0 321 259 24 141 330 309 330 330 232 15 331 1126 0 332 280 333 13
 24 233 0 0 0 0 0 0 10 17 14 17 362 0 ?122 0 307 6 128 -205 205 122 0 24 14 122
 213 0 ?205 17 30 6 334 -0 0 205 17 24 15 307 981 0 305 17 335 14 205 219 0 ?212
 122 336 6 128 -17 17 212 122 24 14 212 223 0 ?337 205 338 6 209 -0 0 337 205 24
 15 336 969 0 125 205 339 17 125 0 336 125 125 0 340 123 0 0 +15 339 963 0 304 2
05 341 17 304 0 339 304 304 0 342 301 0 0 +15 341 357 0 343 205 0 17 343 0 341 1
06 166 42 69 155 0 344 -17 106 0 341 40 343 89 344 345 0 101 +17 166 0 341 343 6
6 67 346 164 0 0 +17 69 0 347 348 46 67 343 155 0 163 +16 155 688 0 ?69 180 152
 177 180 180 1 17 344 0 260 349 91 42 106 345 0 0 -15 260 813 0 349 222 0 17 349
 0 260 91 344 47 46 350 0 0 -17 91 0 260 344 349 89 49 26 0 25 -16 345 741 0 ?10
6 26 351 352 0 0 1 16 26 747 0 ?49 11 345 271 0 0 1 16 351 735 0 ?40 345 353 354
 0 0 1 38 352 743 0 345 354 271 0 +128 355 356 357 358 359 38 354 737 0 351 360
 352 0 -361 128 362 363 364 365 38 271 749 0 26 352 27 0 -366 258 367 368 369 37
0 59 355 744 0 1 361 366 371 +1 255 40 6 356 0 1 6 .00081198127389097 .358713672
173487 ??.0075 -.0095 -.0052256537192305 .00747433043066643 -.0095609079731238 -
.0052324888197335 .00658595659386338 -.01113323504502956 -.00570487936532572 .00
482129703368357 -.01291493271471458 -.00713006593749679 .003435062553291875 -.01
373814947933096 -.00839576150324251 1292912410272578e-20 -.0144999897130858 -.01
168741356562504 41 1 357 L?.0075 -.0095 -.0052256537192305 41 2 358 TF-162578501
7989225e-49 -.0145 -.0117 1292912410272578e-20 -.0144999897130858 -.011687413565
62504 204 14 359 2 1.176005207095134 .0479743462807695 1.16787026743797 .0479675
111802665 .945140586110055 .0474951206346743 .635264461583569 .0460699340625032
 .436507390798201 .0448042384967575 .00159127748420569 .04151258643437495 0 .041
5 59 361 738 0 1 372 355 373 +1 278 59 366 750 0 1 355 272 374 +0 255 141 371 35
2 371 371 355 59 272 756 0 1 366 215 375 +0 278 141 374 271 374 374 366 56 215 7
82 0 223 272 225 376 +R128 220 235 .0015 .0015 1 1 0 0 0 0 141 375 27 375 375 27
2 14 223 770 0 ?216 266 377 6 215 +0 0 216 266 24 51 225 781 0 1 215 217 378 +0
 -.006375 -.0532 0 612323399573677e-31 1 .009625 0 -1 612323399573677e-31 141 37
6 200 379 380 215 141 379 213 380 376 215 141 380 381 376 379 215 38 381 698 0 3
82 199 383 0 +207 215 384 385 386 387 16 382 696 0 ?52 388 350 381 0 0 1 38 199
 693 0 350 191 381 0 +207 255 389 390 391 392 38 383 703 0 388 381 393 0 +220 21
3 394 395 396 397 50 207 227 0 337 128 209 398 +.0075 -.0145 -.0532 1 0 0 0 0 -1
 40 5 384 0 1 5 .0002029498276473035 .371837943295853 ??.0075 -.0095 -.050174346
2807695 .0075 -.00954802955052809 -.0499332727504219 .0075 -.00973123713026988 -
.0496290819422393 .0075 -.01060188796924756 -.0488617643318047 .0075 -.011736510
9661592 -.0481719144332434 41 1 385 L?.0075 -.0095 -.0501743462807695 41 1 386 L
?.0075 -.0117365109661592 -.0481719144332434 204 20 387 4 -.003025653719230525 .
005 .01309567062877428 1 -.003266727249578135 .00495197044947191 .01301909586375
814 .89717374651968 -.003570918057760735 .00476876286973012 .0127763794655171 .7
68288207782347 -.0043382356681953 .00389811203075245 .01164704753990134 .4211974
42433656 -.00502808556675655 .00276348903384081 .0103252738988101 0 14 337 221 0
 ?399 212 347 6 207 +0 0 399 212 24 141 398 199 400 400 207 141 400 381 398 398
 207 14 399 215 0 ?267 337 401 6 206 -0 0 267 337 24 15 347 328 0 182 337 0 17 1
82 0 347 52 145 53 81 180 0 0 +17 52 0 347 402 182 50 55 382 0 189 +17 145 0 347
 182 83 79 403 140 0 148 +17 81 0 404 405 406 79 182 180 0 145 -15 404 361 0 197
 17 0 17 405 0 404 178 81 76 148 146 0 0 -17 406 0 404 81 197 53 407 198 0 182 +
17 197 0 404 406 178 73 408 190 0 118 +17 407 0 377 409 55 73 406 198 0 0 -16 19
8 673 0 ?406 350 190 191 0 0 1 16 350 691 0 ?46 382 198 199 0 0 1 17 46 0 347 69
 410 42 349 350 0 343 +17 410 0 347 46 411 47 94 179 0 349 -17 411 0 347 410 402
 92 88 185 0 0 -17 94 0 412 109 49 92 410 179 0 108 +15 412 547 0 109 266 0 17 1
09 0 412 49 94 89 108 110 0 38 +17 49 0 412 94 109 47 91 26 0 410 +17 108 0 107
 88 101 92 109 110 0 411 -17 88 0 107 117 108 86 411 185 0 413 +16 110 435 0 ?10
9 119 102 112 102 102 1 17 117 0 107 113 88 73 413 135 0 407 +17 413 0 414 189 4
15 86 117 135 0 402 -15 414 527 0 189 416 0 17 189 0 414 415 413 50 402 187 0 40
9 +17 415 0 414 413 189 73 409 388 0 197 +16 135 420 0 ?117 156 119 134 119 119
 1 17 402 0 347 411 52 86 189 187 0 0 -17 409 0 377 55 407 50 415 388 0 0 -16 38
8 701 0 ?415 417 382 383 0 0 1 16 417 711 0 ?41 34 388 393 0 0 1 17 41 0 418 97
 118 36 85 417 0 120 +16 34 725 0 ?28 353 417 283 0 0 1 38 393 713 0 417 383 283
 0 -372 220 419 420 421 422 38 283 727 0 34 393 360 0 +278 334 423 424 425 426 5
9 372 714 0 1 213 361 427 +0 211 40 4 419 0 1 4 .000739250608435018 .29697174675
50005 ??-.0075 -.0117365109661591 -.0481719144332433 -.00571138263990209 -.01305
56191601541 -.0472153338942332 -.004069227947756295 -.01380576934802562 -.046241
7219205891 -1661619452016815e-20 -.01449998896710784 -.04371050375170065 41 1 42
0 L?-.0075 -.0117365109661591 -.0481719144332433 41 2 421 TF0 -.0145 -.0437 -166
1619452016815e-20 -.01449998896710784 -.04371050375170065 204 10 422 3 3.6053393
2031942 .025 3.93268804475059 .0232113826399021 4.179127838723935 .0215692279477
563 4.7102882284994 .01751661619452015 4.71238898038469 .0175 59 213 704 0 1 200
 372 428 +0 215 141 427 393 427 427 372 141 428 383 428 428 213 38 360 732 0 353
 283 354 0 +211 334 429 430 431 432 50 334 224 0 122 268 206 433 +-.0075 -.0145
 -.0532 1 0 0 0 0 -1 40 5 423 0 1 5 .0002029498276472965 .3718379432958525 ??-.0
075 -.0095 -.00522565371923051 -.0075 -.0095480295505281 -.00546672724957812 -.0
075 -.00973123713026987 -.0057709180577607 -.0075 -.0106018879692475 -.006538235
66819525 -.0075 -.0117365109661592 -.00722808556675652 41 1 424 L?-.0075 -.0095
 -.00522565371923051 41 1 425 L?-.0075 -.0117365109661592 -.00722808556675652 20
4 20 426 4 .01309567062877436 1 -.0479743462807695 .005 .01301909586375824 .8971
7374651968 -.0477332727504219 .00495197044947191 .01277637946551722 .76828820778
2353 -.0474290819422393 .00476876286973013 .0116470475399015 .42119744243367 -.0
466617643318047 .003898112030752495 .01032527389881018 0 -.0459719144332435 .002
76348903384081 50 268 197 0 434 264 334 0 +123750000000089e-20 -.01500125 -.0022
 0 612323399573677e-31 1 1 0 0 51 206 225 0 399 334 128 0 +-1224646799147352e-34
 -.017 -.0532 0 612323399573677e-31 1 .002 0 -1 612323399573677e-31 141 433 283
 435 435 334 141 435 360 433 433 334 14 434 141 0 ?231 267 436 6 268 +0 0 231 26
7 24 14 231 520 0 ?416 434 418 6 220 -416 416 416 434 24 14 267 1 0 ?434 399 437
 6 264 -0 0 434 399 24 15 436 153 0 346 434 438 17 346 0 436 439 163 64 166 164
 0 0 -15 438 154 0 440 434 0 17 440 0 438 440 440 0 169 167 0 0 -17 169 0 441 16
9 169 0 440 167 0 0 +15 441 216 0 169 399 0 17 439 0 436 442 346 60 171 141 0 0
 -17 163 0 436 346 442 67 348 159 0 166 +17 442 0 436 163 439 70 158 156 0 0 -17
 348 0 347 83 69 70 163 159 0 442 -17 83 0 347 145 348 63 72 175 0 443 -17 72 0
 444 158 443 70 83 175 0 348 +17 443 0 444 72 75 63 139 137 0 403 -15 444 222 0
 158 212 0 17 75 0 444 443 158 59 62 172 0 445 -17 139 0 437 154 403 59 443 137
 0 0 +17 403 0 437 139 148 63 145 140 0 0 -15 437 108 0 148 267 446 17 148 0 437
 403 154 79 405 146 0 0 +17 154 0 437 148 139 76 445 152 0 405 +17 445 0 30 62 7
8 59 154 152 0 139 -17 62 0 30 171 445 60 75 172 0 158 +17 78 0 30 445 58 76 178
 176 0 154 -17 58 0 30 78 120 56 447 353 0 178 +17 178 0 404 197 405 56 78 176 0
 408 +17 408 0 224 447 85 56 197 190 0 0 -15 224 792 0 447 216 0 17 447 0 224 85
 408 36 58 353 0 0 -17 85 0 224 408 447 73 41 417 0 415 -16 353 730 0 ?58 351 34
 360 0 0 1 17 120 0 30 58 114 36 97 111 0 447 -17 97 0 418 118 41 95 120 111 0 1
13 +15 418 523 0 118 231 0 17 118 0 418 41 97 73 113 119 0 117 -17 171 0 30 32 6
2 64 439 141 0 346 +17 158 0 444 75 72 60 442 156 0 439 +17 32 0 30 28 171 29 66
 174 0 0 -17 66 0 341 166 40 64 32 174 0 171 +16 174 718 0 ?66 176 172 173 176 1
76 1 17 40 0 341 66 106 29 38 351 0 32 +17 38 0 37 39 33 89 40 351 0 0 -15 37 83
4 0 38 259 0 17 39 0 37 33 38 12 25 11 0 0 -15 446 6 0 151 267 0 17 151 0 446 15
1 151 0 448 149 0 0 +17 448 0 401 448 448 0 151 149 0 0 -15 401 214 0 448 399 44
1 14 416 556 0 ?116 231 414 6 220 -231 231 116 231 24 14 116 560 0 ?104 416 107
 6 233 -0 0 104 416 24 40 6 429 0 1 6 .0001156237275707254 .358594514990775 ??-.
0075 -.0117365109661591 -.0481719144332433 -.0075 -.0108106936785568 -.048716853
9471971 -.0075 -.0102005095006896 -.0491692291951579 -.0075 -.00968079656018752
 -.0496956973454881 -.0075 -.00954419087348832 -.0499433111968965 -.0075 -.0095
 -.0501743462807695 41 1 430 L?-.0075 -.0117365109661591 -.0481719144332433 41 1
 431 L?-.0075 -.0095 -.0501743462807695 204 24 432 4 .01032527389881006 1 -.0050
2808556675667 .002763489033840905 .0113864956165873 .653305309339025 -.004483146
052802855 .003689306321443195 .01216266928865264 .4329156877979515 -.00403077080
4842115 .004299490499310415 .0128425187095045 .203383199042004 -.003504302654511
875 .00481920343981248 .0130243959255197 .0985763342223168 -.00325668880310351 .
00495580912651169 .01309567062877422 0 -.003025653719230525 .005 15 377 771 0 40
7 223 0 17 55 0 377 407 409 53 52 382 0 406 -14 266 564 0 ?223 104 412 6 258 -10
4 104 223 104 24 40 4 394 0 1 4 .000739250608434708 .2969717467549375 ??.0075 -.
0117365109661591 -.0481719144332433 .00571138263990209 -.0130556191601541 -.0472
153338942332 .004069227947755545 -.0138057693480259 -.0462417219205886 166161945
2017035e-20 -.01449998896710784 -.04371050375170065 41 1 395 L?.0075 -.011736510
9661591 -.0481719144332433 41 2 396 TF1481484572605566e-49 -.0145 -.0437 1661619
452017035e-20 -.01449998896710784 -.04371050375170065 204 10 397 2 3.60533932031
942 .01 3.93268804475059 .01178861736009792 4.17912783872404 .01343077205224446
 4.7102882284994 .01748338380547985 4.71238898038469 .0175 40 6 389 0 1 6 .00011
56237275706872 .358594514990826 ??.0075 -.0117365109661591 -.00722808556675664 .
0075 -.0108106936785568 -.00668314605280283 .0075 -.01020050950068958 -.00623077
080484209 .0075 -.00968079656018756 -.0057043026545119 .0075 -.00954419087348833
 -.00545668880310352 .0075 -.0095 -.00522565371923049 41 1 390 L?.0075 -.0117365
109661591 -.00722808556675664 41 1 391 L?.0075 -.0095 -.00522565371923049 204 24
 392 4 -.0459719144332434 .002763489033840905 .01032527389881064 1 -.04651685394
71972 .003689306321443205 .011386495616588 .653305309339022 -.0469692291951579 .
00429949049931042 .0121626692886534 .4329156877979515 -.0474956973454881 .004819
20343981245 .01284251870950526 .203383199042027 -.0477433111968965 .004955809126
51168 .01302439592552052 .0985763342223293 -.0479743462807695 .005 .013095670628
77506 0 141 378 235 378 378 225 141 373 354 373 373 361 40 4 367 0 1 4 .00073925
0608430731 .296971746755469 ??.0075 -.0117365109661591 -.00722808556675664 .0057
1138263990208 -.0130556191601541 -.00818466610576676 .00406922794774576 -.013805
7693480294 -.00915827807941731 1661619452056875e-20 -.01449998896710784 -.011689
49624829994 41 1 368 L?.0075 -.0117365109661591 -.00722808556675664 41 2 369 TF-
1481484572605566e-49 -.0145 -.0117 1661619452056875e-20 -.01449998896710784 -.01
168949624829994 204 10 370 3 5.81943864044996 .01 5.49208991601879 .011788617360
09792 5.24565012204396 .01343077205225424 4.71448973226986 .01748338380547945 4.
71238898038469 .0175 40 6 362 0 1 6 .000811981273894701 .358713672173487 ??-.007
5 -.0095 -.00522565371923051 -.00747433043066643 -.00956090797312379 -.005232488
8197335 -.00658595659386339 -.01113323504502954 -.00570487936532572 -.0048212970
3368359 -.01291493271471456 -.00713006593749677 -.00343506255329889 -.0137381494
793277 -.00839576150323595 -1292912410256946e-20 -.0144999897130858 -.0116874135
656249 41 1 363 L?-.0075 -.0095 -.00522565371923051 41 2 364 TF0 -.0145 -.0117 -
1292912410256946e-20 -.0144999897130858 -.0116874135656249 204 14 365 3 5.107180
10008445 .0479743462807695 5.11531503974161 .0479675111802665 5.33804472106953 .
0474951206346743 5.64792084559602 .0460699340625032 5.84667791638043 .0448042384
9676405 6.2815940296954 .0415125864343751 0 .0415 17 342 0 449 342 342 0 304 301
 0 0 -15 449 1055 0 342 323 0 17 340 0 450 340 340 0 125 123 0 0 -15 450 1019 0
 340 326 0 15 338 956 0 451 212 302 17 451 0 338 451 451 0 452 21 0 0 +15 302 94
9 0 300 212 453 15 453 942 0 297 212 454 17 297 0 453 297 297 0 455 296 0 0 +15
 454 935 0 294 212 444 17 294 0 454 294 294 0 332 292 0 0 +17 332 0 331 332 332
 0 294 292 0 0 -17 455 0 324 455 455 0 297 296 0 0 -15 324 1090 0 455 321 456 15
 456 1091 0 308 321 0 17 308 0 456 308 308 0 305 298 0 0 -17 452 0 329 452 452 0
 451 21 0 0 -16 21 1003 0 ?451 123 301 8 0 0 1 15 329 1018 0 452 326 450 15 335
 975 0 457 17 404 17 457 0 335 457 457 0 458 295 0 0 +17 458 0 333 458 458 0 457
 295 0 0 -16 295 1114 0 ?457 296 292 309 0 0 1 15 333 1127 0 458 280 0 15 327 10
54 0 303 323 449 17 303 0 327 303 303 0 300 299 0 0 -40 21 318 0 1 21 8534117494
07604e-19 .395142337306777 ??.0057 -.01216513169107578 -.00495 .0060447908366842
1 -.01180419227332562 -.00486604750501641 .00627289206175823 -.01153895683381752
 -.00468403996278655 .00638213372928164 -.01140331920840012 -.0045117588416971 .
00643563188598363 -.01133466402371278 -.00434610177385703 .00644993812743906 -.0
1131604474298786 -.00419036646413852 .0064317606314335 -.01133968329100076 -.004
03560298578122 .00637064644410002 -.0114178651463504 -.00386424213037368 .006233
46418798267 -.0115864824394924 -.00367282264830514 .00596816145606551 -.01188831
786081068 -.003499579102624115 .00565377782279681 -.01221027388649848 -.00345142
568148873 .00535921628278005 -.01248191622952084 -.0035318933782114 .00515456851
05932 -.0126556089250646 -.003685214131542555 .005026138036514 -.012758851614652
96 -.003870743179012495 .00495615189900222 -.01281333700220924 -.004104135498530
455 .00495938356371902 -.0128108480146686 -.004318267892136685 .0050152131568407
5 -.01276743787544716 -.00450588720051023 .00511774579808573 -.0126856499622603
 -.00467273676010351 .00530796950077407 -.01252651077206666 -.00483938414718903
 .00558754175395971 -.01227372885864038 -.00494152083106109 .0057 -.012165131691
07576 -.00495 41 1 319 H?.0057 -.01216513169107576 -.00495 204 84 320 4 .7775540
54653599 .04825 0 .0167651316910758 .838998461388503 .0483339524949836 .47768113
6350887 .01640419227332565 .882057608073963 .0485159600372134 .869267013121362 .
0161389568338175 .903492954650002 .0486882411583029 1.142107694942326 .016003319
20840015 .914205356514698 .048853898226143 1.3747403756592 .0159346640237128 .91
7095297393819 .0490096335358615 1.583641394504235 .01591604474298785 .9134252035
7748 .0491643970142188 1.791786700384145 .01593968329100075 .90121173730845 .049
3357578696263 2.034962283299905 .0160178651463504 .874457412468262 .049527177351
6949 2.35026716938975 .0161864824394924 .824992876369481 .0497004208973759 2.775
95099650029 .0164883178608107 .769602171455593 .0497485743185113 3.2032613036383
65 .0168102738864985 .720280929276229 .0496681066217886 3.61326682667539 .017081
91622952085 .68724298912584 .0495147858684574 3.95588780700661 .0172556089250646
 .666961655966137 .0493292568209875 4.25789346987847 .01735885161465295 .6560453
53826728 .0490958645014695 4.58421901366613 .01741333700220925 .656547391764614
 .0488817321078633 4.87074045623448 .0174108480146686 .665251476023983 .04869411
27994898 5.13248661552237 .01736743787544715 .681394073165639 .0485272632398965
 5.3943487515566 .0172856499622603 .711919908166753 .048360615852811 5.733161726
02105 .01712651077206665 .758312696452121 .0482584791689389 6.13267334318921 .01
68737288586404 .777554054653599 .04825 0 .0167651316910758 40 21 314 0 1 21 7568
52186730649e-19 .369137931812876 ??-.0057 -.01216513169107578 -.05195 -.00542668
891027424 -.01242203832227866 -.0518984275540333 -.00520056116762528 -.012617578
67726054 -.0517595184114184 -.00505318819487626 -.01273746132146696 -.0515796504
823552 -.00497299871138502 -.01280033336229046 -.0513843071522002 -.004950818756
61674 -.012817438873527 -.0511649648096522 -.00498683636394072 -.012789599603972
06 -.0509678413727584 -.00507026700859491 -.0127238595402288 -.0507926471314254
 -.00520187839213675 -.0126164810897271 -.0506393085841751 -.00543634933730736 -
.0124133549815126 -.0504978687244811 -.005756676052579 -.01210878634286834 -.050
452144515923 -.00606079145078552 -.01178632442107154 -.0505424822975462 -.006280
01711369852 -.0115302895216131 -.0507245211384122 -.00638614159392173 -.01139822
809977636 -.0508971638841047 -.00643718047912498 -.01133265392894384 -.051061924
1469443 -.00644979631532493 -.0113162298561007 -.0512174781442136 -.006430212202
82488 -.01134168863798024 -.0513711436205228 -.00636679518387358 -.0114227266255
815 -.051543342660855 -.00622529989681304 -.011596232248688 -.0517353130097506 -
.00595421701483144 -.0119033745115804 -.0519056016648012 -.0057 -.01216513169107
578 -.05195 41 1 315 H?-.0057 -.01216513169107578 -.05195 204 84 316 4 5.5056312
5252599 .00125 0 .0167651316910758 5.55180150038793 .001301572445966722 .3730042
99400356 .01702203832227865 5.58859715135795 .001440481588581592 .72872425915023
4 .01721757867726055 5.61197926809039 .001620349517644765 1.040022743350416 .017
33746132146695 5.62452066938899 .00181569284779978 1.322510338313582 .0174003333
6229045 5.62796803112274 .002035035190347785 1.61752692004426 .017417438873527 5
.62236526137637 .002232158627241605 1.885510648101995 .01738959960397205 5.60929
208811477 .002407352868574645 2.144965236178475 .0173238595402288 5.588386126333
85 .00256069141582489 2.41522013939364 .0172164810897271 5.55020280604134 .00270
2131275518855 2.7823832389618 .0170133549815126 5.49579508474699 .00274785548407
702 3.2172328314766 .01670878634286835 5.44123484582044 .002657517702453775 3.64
3450664055905 .01638632442107155 5.39974677446004 .00247547886158782 4.025710695
79882 .0161302895216131 5.37889489034694 .00230283611589528 4.29674245953567 .01
599822809977635 5.36866764987224 .0021380758530557 4.52723169026997 .01593265392
894385 5.366118710084 .0019825218557864 4.73569528254618 .0159162298561007 5.370
07192932108 .001828856379477245 4.94260874354295 .01594168863798025 5.3827369066
7565 .00165665733914498 5.18789705419582 .0160227266255815 5.41029302703729 .001
46468699024943 5.50722773742525 .016196232248688 5.46071820916917 .0012943983351
9883 5.93737830202999 .0165033745115804 5.50563125252599 .00125 0 .0167651316910
758 141 284 272 285 279 278 141 285 361 279 284 278 141 282 247 282 282 19 141 2
81 236 281 281 250 40 4 273 0 1 4 .000739250608434146 .2969717467560685 ??-.0075
 -.0117365109661591 -.00722808556675664 -.00571138263990209 -.0130556191601541 -
.00818466610576674 -.00406922794775407 -.01380576934802642 -.00915827807941226 -
16616194520532e-18 -.01449998896710784 -.0116894962482999 41 1 274 L?-.0075 -.01
17365109661591 -.00722808556675664 41 2 275 TF0 -.0145 -.0117 -16616194520532e-1
8 -.01449998896710784 -.0116894962482999 204 10 276 2 5.81943864044996 .025 5.49
208991601879 .0232113826399021 5.24565012204513 .02156922794775405 4.71448973226
987 .01751661619452055 4.71238898038469 .0175 141 262 366 263 257 255 141 263 35
5 257 262 255 141 261 236 261 261 249 141 248 255 248 248 236 40 6 251 0 1 6 .00
0949797456015187 .38917611085592 ??1515936110750225e-20 -.01599998806200665 -.01
168754232080952 .00406922794774576 -.0150975001524382 -.00839576150324251 .00571
138263990208 -.01412230490820034 -.00713006593749679 .00780182550349971 -.012011
6784379581 -.00570487936532572 .00885420681786639 -.01014907559893126 -.00523248
88197335 .00948009458482927 -.00803886046971817 -.00536635403001968 41 2 252 TF-
1925929944387235e-49 -.016 -.0117 1515936110750225e-20 -.01599998806200665 -.011
68754232080952 41 1 253 L?.00948009458482927 -.00803886046971817 -.0053663540300
1968 204 28 254 4 4.71238898038469 .0175 0 .0415 4.71430554758732 .0174848406388
925 .00157499920778661 .04151245767919045 5.24565012204396 .01343077205225424 .4
36507390798201 .0448042384967575 5.49208991601879 .01178861736009792 .6352644615
83569 .0460699340625032 5.88644699001116 .00969817449650029 .945140586110055 .04
74951206346743 6.1831608169966 .00864579318213362 1.16787026743797 .047967511180
2665 .226728230449771 .00801990541517073 1.397054929808686 .0478336459699803 141
 242 215 242 242 235 40 6 243 0 1 6 .000949797456020255 .38917611085592 ??151593
6110718165e-20 -.01599998806200665 -.0437124576791908 .004069227947755545 -.0150
9750015243365 -.0470042384967652 .00571138263990209 -.01412230490820034 -.048269
9340625032 .00780182550349972 -.0120116784379581 -.0496951206346743 .00885420681
786639 -.01014907559893126 -.0501675111802665 .00948009458482927 -.0080388604697
1816 -.0500336459699803 41 2 244 TF1925929944387235e-49 -.016 -.0437 15159361107
18165e-20 -.01599998806200665 -.0437124576791908 41 1 245 L?.00948009458482927 -
.00803886046971816 -.0500336459699803 204 28 246 4 200096617598674e-46 .0095 4.7
1238898038469 .0175 .0015749992077533 .00948754232080917 4.710472413182 .0174848
406388928 .4365073907993225 .00619576150323481 4.17912783872404 .013430772052244
46 .63526446158357 .0049300659374968 3.93268804475059 .01178861736009792 .945140
586110057 .003504879365325745 3.53833097075822 .00969817449650028 1.167870267437
972 .003032488819733515 3.241617143772775 .00864579318213361 1.397054929808686 .
003166354030019705 2.91486442314002 .00801990541517073 141 234 393 459 460 220 1
41 459 383 461 234 220 141 460 215 234 461 220 141 461 211 460 459 220 141 229 3
60 230 219 211 141 230 372 219 229 211 141 228 221 228 228 218 141 226 235 226 2
26 217 141 214 191 214 214 200 141 208 352 462 463 128 141 462 126 464 208 128 1
41 463 215 208 465 128 141 465 211 463 466 128 141 466 255 465 467 128 141 467 2
78 466 468 128 141 468 188 467 469 128 141 469 191 468 470 128 141 470 354 469 4
71 128 141 471 309 470 472 128 141 472 306 471 464 128 141 464 127 472 462 128 4
0 6 201 0 1 6 .000811981273895323 .358713672173487 ??.0075 -.0095 -.050174346280
7695 .00747433043066643 -.0095609079731238 -.0501675111802665 .00658595659386339
 -.01113323504502956 -.0496951206346743 .00482129703368358 -.01291493271471456 -
.0482699340625032 .003435062553300135 -.01373814947932712 -.0470042384967652 129
2912410229178e-20 -.0144999897130858 -.0437125864343754 41 1 202 L?.0075 -.0095
 -.0501743462807695 41 2 203 TF1625785017989225e-49 -.0145 -.0437 12929124102291
78e-20 -.0144999897130858 -.0437125864343754 204 14 204 3 1.176005207095134 .003
025653719230525 1.167870267437972 .003032488819733515 .945140586110057 .00350487
9365325745 .63526446158357 .0049300659374968 .4365073907993225 .0061957615032348
1 .001591277484152275 .00948741356562458 200096617598674e-46 .0095 40 21 130 0 1
 21 756852186730655e-19 .369137931812865 ??-.0057 -.01216513169107578 -.00495 -.
00542668891027424 -.01242203832227864 -.00489842755403327 -.00520056116762528 -.
01261757867726054 -.00475951841141839 -.00505318819487626 -.01273746132146696 -.
00457965048235523 -.00497299871138502 -.01280033336229046 -.00438430715220023 -.
00495081875661674 -.012817438873527 -.004164964809652235 -.00498683636394071 -.0
1278959960397206 -.00396784137275842 -.00507026700859489 -.0127238595402288 -.00
379264713142536 -.00520187839213672 -.0126164810897271 -.00363930858417511 -.005
43634933730732 -.01241335498151262 -.00349786872448115 -.00575667605257894 -.012
1087863428684 -.00345214451592297 -.00606079145078546 -.0117863244210716 -.00354
248229754619 -.00628001711369849 -.01153028952161312 -.00372452113841214 -.00638
614159392172 -.01139822809977638 -.003897163884104675 -.00643718047912498 -.0113
3265392894384 -.00406192414694427 -.00644979631532494 -.0113162298561007 -.00421
747814421356 -.00643021220282489 -.01134168863798022 -.00437114362052272 -.00636
679518387359 -.01142272662558146 -.00454334266085497 -.00622529989681308 -.01159
623224868794 -.00473531300975051 -.00595421701483151 -.01190337451158032 -.00490
560166480114 -.0057 -.01216513169107578 -.00495 41 1 131 H?-.0057 -.012165131691
07578 -.00495 204 84 132 4 5.50563125252599 .04825 0 .0167651316910758 5.5518015
0038793 .0483015724459667 .3730042994003525 .01702203832227865 5.58859715135795
 .0484404815885816 .728724259150237 .01721757867726055 5.61197926809039 .0486203
495176448 1.040022743350406 .01733746132146695 5.62452066938899 .048815692847799
8 1.322510338313552 .01740033336229045 5.62796803112274 .0490350351903478 1.6175
2692004422 .017417438873527 5.62236526137637 .0492321586272416 1.885510648101945
 .01738959960397205 5.60929208811478 .0494073528685746 2.14496523617845 .0173238
595402288 5.58838612633385 .0495606914158249 2.4152201393936 .0172164810897271 5
.55020280604134 .0497021312755188 2.782383238961745 .0170133549815126 5.49579508
4747 .049747855484077 3.217232831476525 .0167087863428684 5.44123484582045 .0496
575177024538 3.64345066405582 .0163863244210716 5.39974677446005 .04947547886158
79 4.02571069579876 .01613028952161315 5.37889489034694 .0493028361158953 4.2967
4245953562 .0159982280997764 5.36866764987224 .0491380758530557 4.52723169026994
 .01593265392894385 5.366118710084 .0489825218557864 4.73569528254614 .015916229
8561007 5.37007192932108 .0488288563794773 4.94260874354292 .01594168863798025 5
.38273690667565 .048656657339145 5.18789705419577 .01602272662558145 5.410293027
03728 .0484646869902495 5.50722773742517 .01619623224868795 5.46071820916915 .04
82943983351989 5.93737830202989 .01650337451158035 5.50563125252599 .04825 0 .01
67651316910758 19 18 234 0 1 0 10 6 0 S0 141 20 247 20 20 7 74 4 CI16 index_map_
offset0 0 1 dCCZ20 16 3 0 0 473 14 2 0 0 0 0 0 0 0 0 0 0 0 0 0 0 0 0 0 81 1 473
 1378 474 1 0 14 0 0 475 81 1 14 1379 476 1 473 2 0 0 477 80 7 CCCCCDI12 legal_o
wners0 17 1 lCZ1 476 13 478 8038 0 0 0 0 0 0 0 0 0 TTTTTTTTTTTTTFTFT10 98 255 7
 477 80 97 114 116 32 49 52 79 255 14 478 SDL/TYSA_UNAME80 1 474 479 480 8040 0
 0 0 0 3 5 0 0 0 TTTFFFFFFFFFFFFFF2 83 255 3 475 .498039215686275 .4980392156862
75 .498039215686275 79 17 480 SDL/TYSA_COLOUR_280 1 13 481 482 8017 0 0 0 0 0 0
 0 0 0 TTTTTTTTTTTTTFTFT3 84 255 7 15 Part 1479 13 482 SDL/TYSA_NAME1 0 
