**ABCDEFGHIJKLMNOPQRSTUVWXYZabcdefghijklmnopqrstuvwxyz**************************
**PARASOLID !"#$%&'()*+,-./:;<=>?@[\]^_`{|}~0123456789**************************
**PART1;
MC=unknown;
MC_MODEL=unknown;
MC_ID=unknown;
OS=unknown;
OS_RELEASE=unknown;
FRU=Parasolid 37.0.173;
APPL=Onshape;
SITE=unknown;
USER=unknown;
FORMAT=text;
GUISE=transmit;
KEY=BTGapi::writeModels_.xmt;
FILE=BTGapi::writeModels_.xmt;
DATE=2024-12-24T11:44:24 (UTC);
**PART2;
SCH=SCH_3700173_36001;
USFLD_SIZE=0;
**PART3;
**END_OF_HEADER*****************************************************************
T51 : TRANSMIT FILE created by modeller version 370017323 SCH_3700173_36001_1300
6231 0 12 36 CCCI7 lattice222 0 CCCI4 mesh1006 0 I8 polyline1008 0 CCCCCCCDI5 ow
ner1040 0 CCCI16 boundary_lattice222 0 CCCI13 boundary_mesh1006 0 I17 boundary_p
olyline1008 0 CCCA16 index_map_offset0 0 1 dA9 index_map82 0 A17 node_id_index_m
ap82 0 A20 schema_embedding_map82 0 A5 child12 0 A14 lowest_node_id0 0 1 dA16 me
sh_offset_data206 0 Z1 1637 2 3 0 0 0 0 0 0 0 1e3 1e-8 0 4 5 1 0 1 2 6 0 7 8 9 0
 0 10 11 12 0 0 0 0 0 0 0 81 255 1 2 1637 13 1 14 0 0 0 15 70 11 CI9 list_type0
 0 1 uI10 notransmit0 0 1 lCCCDCCDI12 finger_index0 0 1 dI12 finger_block1012 0
 CZ3 0 4 T1 0 0 3 20 1 16 16 13 255 6 489 0 1 0 17 0 0 18 0 50 255 7 476 0 19 20
 0 0 +.01449166201338026 -.01899197690040905 -.0697 -.5 -.866025403784438 0 .866
025403784438 -.5 0 30 255 8 488 0 21 22 0 0 +.01567845816691055 -.01967717397912
3 -.0697 0 0 -1 29 255 9 419 0 23 24 0 .0225065693170013 -.002368961917726845 -.
0997 19 9 CCCCCCI5 frame230 0 CA5 owner12 0 Z10 204 0 1 18 0 25 0 V0 16 255 11 4
33 0 ?26 0 27 28 0 0 1 18 255 12 188 0 29 0 30 31 ?1 17 255 29 0 32 33 34 12 35
 36 0 37 -18 30 183 0 38 12 39 40 ?1 29 31 190 0 12 40 41 .0225065693170013 -.00
2368961917726845 -.0697 29 40 185 0 30 42 31 .02325176807479465 -.00107823980749
151 -.0697 29 41 428 0 43 31 44 .01567845816691055 -.019677173979123 -.0997 18 4
3 400 0 45 46 47 41 ?1 29 44 427 0 46 41 48 .01330486585984994 -.018306779821695
1 -.0997 18 46 396 0 49 50 43 44 ?1 29 48 426 0 50 44 51 .01255966710205656 -.01
959750193193045 -.0997 18 50 392 0 52 53 46 48 ?1 29 51 425 0 53 48 54 .01352006
455738014 -.0234156213735616 -.0997 18 53 388 0 55 56 50 51 ?1 29 54 422 0 56 51
 57 .0248801616240619 -.003739356075154725 -.0997 18 56 376 0 58 59 53 54 ?1 29
 57 421 0 59 54 24 .0270385552335923 -908680716088517e-21 -.0997 18 59 372 0 26
 60 56 57 ?1 29 24 420 0 60 57 9 .02325176807479465 -.00107823980749151 -.0997 1
8 60 368 0 61 23 59 24 ?1 17 61 0 32 34 33 60 38 27 0 62 +18 23 364 0 35 63 60 9
 ?1 17 35 0 64 65 66 23 29 36 0 34 +18 63 123 0 67 68 23 69 ?1 17 67 0 70 71 72
 63 45 21 0 73 -18 68 128 0 74 75 63 76 ?1 29 69 125 0 63 77 76 .015678458166910
55 -.019677173979123 -.0697 29 77 961 0 78 79 69 .02209297229486155 -.0004092087
52011327 -.0997 29 76 130 0 68 69 80 .01330486585984994 -.0183067798216951 -.069
7 29 80 135 0 75 76 81 .01255966710205656 -.01959750193193045 -.0697 18 75 133 0
 82 83 68 80 ?1 29 81 145 0 83 80 84 .01352006455738014 -.0234156213735616 -.069
7 18 83 143 0 85 86 75 81 ?1 29 84 165 0 86 81 42 .0248801616240619 -.0037393560
75154725 -.0697 18 86 163 0 87 39 83 84 ?1 29 42 175 0 39 84 40 .027038555233592
3 -908680716088517e-21 -.0697 18 39 173 0 88 30 86 42 ?1 17 88 0 89 90 91 39 26
 11 0 92 -15 255 89 457 0 91 17 0 17 90 0 89 55 88 83 92 93 0 0 +17 91 0 89 88 5
5 59 94 95 0 96 -17 26 0 97 98 99 59 88 11 0 91 +17 92 0 100 101 85 39 90 93 0 9
9 -15 100 6 0 92 102 0 17 101 0 100 103 92 104 99 105 0 106 -17 85 0 100 92 107
 83 108 109 0 110 +16 93 48 0 ?90 111 109 112 0 0 1 17 99 0 97 26 106 39 101 105
 0 0 +15 97 449 0 98 113 0 17 106 0 97 99 98 104 114 115 0 116 -16 105 88 0 ?99
 117 118 119 0 0 1 16 117 98 0 ?33 120 105 121 0 0 1 16 118 73 0 ?71 105 111 122
 0 0 1 30 119 90 0 105 122 121 0 +.025851759080062 .000684288397997837 -.0697 .8
66025403784441 -.5 0 30 122 75 0 118 123 119 0 +.02027930989548625 -.01170826502
713886 -.0697 .5 .866025403784438 0 30 121 100 0 117 119 124 0 +.022879168695898
 -.00172360086260918 -.0697 .5 .866025403784438 0 30 124 105 0 120 121 125 0 +.0
236933654705316 -.003054158996440785 -.0697 -.866025403784438 .5 0 16 120 103 0
 ?66 126 117 124 0 0 1 30 125 110 0 126 124 127 0 +.02293217780596345 -.00089372
4279751419 -.0697 -.866025403784438 .5 0 16 126 108 0 ?128 129 120 125 0 0 1 30
 127 416 0 130 125 131 0 +.01449166201338026 -.01899197690040905 -.0997 -.866025
403784438 .5 0 16 130 352 0 ?49 132 133 127 0 0 1 30 131 415 0 132 127 134 0 +.0
1293226648095326 -.0189521408768128 -.0997 -.5 -.866025403784438 0 16 132 348 0
 ?52 135 130 131 0 0 1 30 134 414 0 135 131 136 0 +.01233326840384984 -.02273042
429484765 -.0997 .866025403784435 -.500000000000007 0 16 135 342 0 ?137 95 132 1
34 0 0 1 31 255 136 413 0 95 134 138 0 +-870933804562946e-31 2245000684508615e-3
1 -.0997 0 0 -1 .965925826289068 .2588190451025205 0 .0270385552488615 16 95 334
 0 ?94 139 135 136 0 0 1 30 138 412 0 139 136 140 0 +.01224007683322534 -.019412
98640419035 -.0997 -.866025403784439 .5 0 16 139 330 0 ?141 142 95 138 0 0 1 30
 140 410 0 142 138 143 0 +.02027930989548625 -.01170826502713886 -.0997 .5 .8660
25403784438 0 16 142 322 0 ?144 145 139 140 0 0 1 30 143 409 0 145 140 146 0 +.0
25851759080062 .000684288397997837 -.0997 .866025403784441 -.5 0 16 145 316 0 ?9
6 147 142 143 0 0 1 30 146 408 0 147 143 148 0 +.022879168695898 -.0017236008626
0918 -.0997 .5 .866025403784438 0 16 147 312 0 ?149 150 145 146 0 0 1 30 148 407
 0 150 146 151 0 +.0236933654705316 -.003054158996440785 -.0997 -.86602540378443
8 .5 0 16 150 308 0 ?152 153 147 148 0 0 1 30 151 406 0 153 148 154 0 +.02293217
780596345 -.000893724279751419 -.0997 -.866025403784438 .5 0 16 153 304 0 ?155 1
56 150 151 0 0 1 30 154 479 0 36 151 157 0 +.0225065693170013 -.0023689619177268
45 -.0697 0 0 -1 16 36 431 0 ?35 27 158 154 0 0 1 30 157 480 0 27 154 28 0 +.023
25176807479465 -.00107823980749151 -.0697 0 0 -1 16 27 432 0 ?61 11 36 157 0 0 1
 30 28 481 0 11 157 159 0 +.0270385552335923 -908680716088517e-21 -.0697 0 0 -1
 30 159 482 0 158 28 160 0 +.0248801616240619 -.003739356075154725 -.0697 0 0 -1
 16 158 434 0 ?58 36 21 159 0 0 1 30 160 485 0 129 159 161 0 +.01352006455738014
 -.0234156213735616 -.0697 0 0 -1 16 129 437 0 ?55 162 126 160 0 0 1 30 161 486
 0 162 160 22 0 +.01255966710205656 -.01959750193193045 -.0697 0 0 -1 16 162 438
 0 ?163 164 129 161 0 0 1 30 22 487 0 164 161 8 0 +.01330486585984994 -.01830677
98216951 -.0697 0 0 -1 16 164 439 0 ?165 21 162 22 0 0 1 17 165 0 166 52 167 46
 168 164 0 169 +16 21 440 0 ?45 158 164 8 0 0 1 17 45 0 170 49 73 43 67 21 0 171
 +15 170 463 0 49 19 0 17 49 0 170 168 45 46 171 130 0 165 +17 73 0 170 45 168 6
3 74 156 0 172 -17 171 0 173 144 169 43 49 130 0 72 -15 173 299 0 94 174 0 17 14
4 0 173 152 171 56 72 142 0 0 +17 169 0 173 171 175 46 52 132 0 0 -17 72 0 70 67
 58 43 144 142 0 0 -15 70 451 0 72 176 0 17 58 0 70 72 71 56 87 158 0 65 +17 71
 0 70 58 67 86 172 118 0 0 +17 87 0 64 66 65 86 58 158 0 177 -17 65 0 64 87 35 5
6 152 150 0 144 -15 64 445 0 65 178 0 17 152 0 173 149 144 23 65 150 0 0 +17 149
 0 173 155 152 60 34 147 0 0 +17 155 0 173 179 149 78 62 153 0 180 +17 34 0 32 2
9 61 23 149 147 0 152 -15 32 447 0 34 181 0 14 255 181 448 0 ?178 182 32 6 183 +
0 0 178 182 25 14 178 446 0 ?176 181 64 6 184 +0 0 176 181 25 14 182 444 0 ?181
 113 185 6 186 +0 0 181 113 25 50 183 468 0 181 184 187 0 +.022879168695898 -.00
172360086260918 -.0697 -.866025403784438 .5 0 -.5 -.866025403784438 0 13 25 205
 0 0 0 0 0 0 10 17 14 17 458 0 ?113 0 89 6 188 +0 0 113 0 25 14 113 450 0 ?182 1
7 97 6 187 +0 0 182 17 25 51 255 188 473 0 17 189 190 0 +-870933804562946e-31 22
45000684508615e-31 -.0697 0 0 -1 .0270385552488615 -.965925826289068 -.258819045
1025205 0 50 189 472 0 191 192 188 0 +.01224007683322534 -.01941298640419035 -.0
697 -.5 -.866025403784438 0 .866025403784439 -.5 0 50 190 474 0 193 188 20 0 +.0
1233326840384984 -.02273042429484765 -.0697 .500000000000007 .866025403784435 0
 -.866025403784435 .500000000000007 0 14 193 460 0 ?102 191 194 6 190 -0 0 102 1
91 25 50 20 475 0 195 190 7 0 +.01293226648095326 -.0189521408768128 -.0697 .866
025403784438 -.5 0 .5 .866025403784438 0 14 195 462 0 ?191 19 166 6 20 -0 0 191
 19 25 14 191 456 0 ?193 195 196 6 189 -0 0 193 195 25 14 19 464 0 ?195 176 170
 6 7 -0 0 195 176 25 15 166 461 0 52 195 0 17 52 0 166 197 165 50 169 132 0 163
 +17 197 0 166 167 52 75 163 162 0 198 -17 163 0 196 141 198 50 197 162 0 175 +1
5 196 455 0 141 191 0 17 141 0 196 199 163 47 175 139 0 200 +17 198 0 196 163 19
9 75 201 111 0 0 -17 175 0 173 169 202 50 141 139 0 0 -17 202 0 173 175 203 47 2
04 205 0 0 +17 203 0 173 202 94 206 137 135 0 204 -18 47 806 0 141 43 207 208 ?1
 17 204 0 209 210 200 206 202 205 0 211 -16 205 748 0 ?202 212 213 214 0 0 1 16
 212 754 0 ?211 215 205 216 0 0 1 16 213 861 0 ?180 205 217 218 0 0 1 30 214 956
 0 205 219 216 0 +.01069427389625496 -.0201523335185519 -.0997 .5 .8660254037844
39 0 31 219 1356 0 220 221 214 0 +.02184769281131465 -.01261377132578464 -.0997
 0 0 -1 -.965925826289068 -.2588190451025205 0 .001 30 216 955 0 212 214 222 0 +
.00998767647038645 -.02137619616065355 -.0697 0 0 -1 30 222 954 0 215 216 223 0
 +.01069427389625496 -.0201523335185519 -.0697 .5 .866025403784439 0 16 215 776
 0 ?224 133 212 222 0 0 1 30 223 953 0 133 222 225 0 +.01140087132212346 -.01892
847087645025 -.0697 0 0 -1 16 133 779 0 ?200 130 215 223 0 0 1 30 225 944 0 115
 223 226 0 +.0235061671465986 .002038516532191945 -.0697 0 0 -1 16 115 864 0 ?11
4 227 228 225 0 0 1 30 226 943 0 227 225 229 0 +.02279956972073005 .000814653890
090308 -.0697 -.5 -.866025403784437 0 16 227 847 0 ?103 217 115 226 0 0 1 30 229
 942 0 217 226 218 0 +.02209297229486155 -.000409208752011327 -.0697 0 0 -1 16 2
17 841 0 ?230 213 227 229 0 0 1 30 218 941 0 213 229 231 0 +.02279956972073005 .
000814653890090308 -.0997 -.5 -.866025403784437 0 30 231 30 0 156 218 232 0 +.01
449166201338026 -.01899197690040905 -.0697 -.866025403784438 .5 0 16 156 28 0 ?7
4 233 153 231 0 0 1 30 232 35 0 233 231 234 0 +.01293226648095326 -.018952140876
8128 -.0697 -.5 -.866025403784438 0 16 233 33 0 ?82 109 156 232 0 0 1 30 234 45
 0 109 232 112 0 +.01233326840384984 -.02273042429484765 -.0697 .866025403784435
 -.500000000000007 0 16 109 43 0 ?85 93 233 234 0 0 1 31 112 50 0 93 234 123 0 +
-870933804562946e-31 2245000684508615e-31 -.0697 0 0 -1 .965925826289068 .258819
0451025205 0 .0270385552488615 30 123 60 0 111 112 122 0 +.01224007683322534 -.0
1941298640419035 -.0697 -.866025403784439 .5 0 16 111 58 0 ?201 118 93 123 0 0 1
 17 201 0 100 107 82 207 198 111 0 224 +17 107 0 100 85 201 235 224 215 0 210 -1
7 82 0 100 201 74 75 167 233 0 197 +18 207 804 0 201 47 235 236 ?1 17 224 0 209
 200 210 207 107 215 0 199 +15 209 827 0 204 237 0 17 200 0 209 204 224 47 199 1
33 0 202 +17 210 0 209 224 204 235 211 212 0 0 -17 199 0 196 198 141 207 200 133
 0 0 -18 235 796 0 108 207 206 238 ?1 17 211 0 194 137 108 206 210 212 0 0 +15 1
94 459 0 137 193 0 17 137 0 194 110 211 53 203 135 0 94 +17 108 0 194 211 110 23
5 85 109 0 107 -18 206 792 0 203 235 78 239 ?1 18 78 889 0 155 206 240 77 ?1 29
 239 972 0 206 0 238 .00998767647038645 -.02137619616065355 -.0997 29 238 971 0
 235 239 236 .00998767647038645 -.02137619616065355 -.0697 29 236 970 0 207 238
 208 .01140087132212346 -.01892847087645025 -.0697 29 208 969 0 47 236 241 .0114
0087132212346 -.01892847087645025 -.0997 29 241 964 0 242 208 243 .0235061671465
986 .002038516532191945 -.0997 18 242 891 0 98 104 0 241 ?1 29 243 963 0 104 241
 79 .0235061671465986 .002038516532191945 -.0697 18 104 881 0 101 240 242 243 ?1
 29 79 962 0 240 243 77 .02209297229486155 -.000409208752011327 -.0697 18 240 87
7 0 128 78 104 79 ?1 17 128 0 185 230 38 240 244 126 0 245 +15 185 443 0 62 182
 0 17 230 0 185 62 128 78 245 217 0 0 +17 38 0 185 128 62 30 61 27 0 244 -17 244
 0 100 37 103 30 128 126 0 33 -17 245 0 246 116 180 240 230 217 0 103 -15 246 91
2 0 180 247 0 17 116 0 246 114 245 104 103 227 0 0 -17 180 0 246 245 114 78 179
 213 0 230 +17 103 0 100 244 101 240 116 227 0 0 +17 114 0 246 180 116 242 106 1
15 0 179 +17 179 0 173 96 155 242 180 213 0 0 -17 96 0 173 94 179 59 98 145 0 0
 +17 94 0 173 203 96 53 91 95 0 0 +17 98 0 97 106 26 242 96 145 0 114 -14 247 90
9 0 ?248 237 246 6 249 -0 0 248 237 25 14 248 1328 0 ?250 247 251 6 252 -0 0 250
 247 25 14 237 824 0 ?247 174 209 6 253 +0 0 247 174 25 50 249 926 0 247 253 254
 0 +.02279956972073005 .000814653890090308 -.0697 .866025403784437 -.5 0 .5 .866
025403784437 0 50 253 932 0 237 252 249 0 +.01069427389625496 -.0201523335185519
 -.0697 -.866025403784439 .5 0 -.5 -.866025403784439 0 50 254 3 0 102 249 255 0
 +0 0 -.0697 0 0 1 .965925826289068 .2588190451025205 0 14 102 1 0 ?174 193 100
 6 254 +0 0 174 193 25 50 255 404 0 174 254 186 0 +0 0 -.0997 0 0 1 .96592582628
9068 .2588190451025205 0 14 174 276 0 ?237 102 256 6 255 -0 0 237 102 25 50 186
 466 0 182 255 184 0 +.02293217780596345 -.000893724279751419 -.0697 -.5 -.86602
5403784438 0 .866025403784438 -.5 0 50 184 467 0 178 186 183 0 +.023693365470531
6 -.003054158996440785 -.0697 -.5 -.866025403784438 0 .866025403784438 -.5 0 15
 256 1263 0 257 174 258 17 257 0 256 257 257 0 259 260 0 0 -15 258 1256 0 261 17
4 262 17 261 0 258 261 261 0 263 264 0 0 -15 262 1249 0 265 174 173 17 265 0 262
 265 265 0 266 220 0 0 -17 266 0 267 266 266 0 265 220 0 0 +16 220 1323 0 ?266 2
28 268 219 0 0 1 16 228 1320 0 ?269 115 220 221 0 0 1 16 268 1298 0 ?270 220 264
 271 0 0 1 17 270 0 272 270 270 0 273 268 0 0 +16 264 1301 0 ?263 268 274 275 0
 0 1 31 271 1361 0 268 0 275 0 +.02492532928842385 -.001040338428923782 -.0917 0
 0 -1 -.965925826289068 -.2588190451025205 0 .001 31 275 1360 0 264 271 276 0 +.
02492532928842385 -.001040338428923782 -.0997 0 0 -1 -.965925826289068 -.2588190
451025205 0 .001 31 276 1359 0 274 275 277 0 +.01344558797008526 -.0210438370081
927 -.0917 0 0 -1 -.965925826289068 -.2588190451025205 0 .001 16 274 1276 0 ?278
 264 260 276 0 0 1 31 277 1358 0 260 276 221 0 +.01344558797008526 -.02104383700
81927 -.0997 0 0 -1 -.965925826289068 -.2588190451025205 0 .001 16 260 1279 0 ?2
59 274 0 277 0 0 1 31 221 1357 0 228 277 219 0 +.02184769281131465 -.01261377132
578464 -.0917 0 0 -1 -.965925826289068 -.2588190451025205 0 .001 17 259 0 279 25
9 259 0 257 260 0 0 +15 279 1288 0 259 280 0 14 280 1284 0 ?281 282 283 6 284 -0
 0 281 282 25 14 281 1289 0 ?0 280 285 6 286 +0 0 0 280 25 14 282 1311 0 ?280 28
7 272 6 288 +0 0 280 287 25 15 283 1287 0 289 280 279 51 284 1350 0 280 286 290
 0 +.01344558797008526 -.0210438370081927 -.0917 0 0 -1 .001 -.965925826289068 -
.2588190451025205 0 50 286 1352 0 281 291 284 0 +.0185131158519894 -.01068855242
068482 -.0917 0 0 -1 .965925826289068 .2588190451025205 0 50 290 1349 0 250 284
 252 0 +.0185131158519894 -.01068855242068482 -.0917 0 0 -1 .965925826289068 .25
88190451025205 0 14 250 1333 0 ?287 248 292 6 290 +0 0 287 248 25 51 252 1347 0
 248 290 253 0 +.02184769281131465 -.01261377132578464 -.0917 0 0 -1 .001 -.9659
25826289068 -.2588190451025205 0 14 287 1306 0 ?282 250 293 6 291 -0 0 282 250 2
5 15 292 1336 0 269 250 0 17 269 0 292 269 269 0 294 228 0 0 +17 294 0 251 294 2
94 0 269 228 0 0 -15 251 1331 0 294 248 267 15 267 1332 0 266 248 0 15 293 1309
 0 273 287 295 51 291 1353 0 287 288 286 0 +.02492532928842385 -.001040338428923
782 -.0917 0 0 -1 .001 -.965925826289068 -.2588190451025205 0 50 288 1355 0 282
 0 291 0 +.0185131158519894 -.01068855242068482 -.0917 0 0 -1 .965925826289068 .
2588190451025205 0 17 273 0 293 273 273 0 270 268 0 0 -15 295 1310 0 263 287 0 1
7 263 0 295 263 263 0 261 264 0 0 +17 289 0 283 289 289 0 278 274 0 0 -17 278 0
 285 278 278 0 289 274 0 0 +15 285 1292 0 278 281 0 15 272 1314 0 270 282 0 17 3
7 0 100 177 244 12 33 117 0 66 -17 33 0 32 61 29 30 37 117 0 0 +17 177 0 100 172
 37 86 66 120 0 71 -17 66 0 64 35 87 12 177 120 0 0 +17 172 0 100 74 177 63 71 1
18 0 0 -17 74 0 100 82 172 68 73 156 0 168 +17 168 0 170 73 49 68 165 164 0 167
 -17 167 0 166 165 197 68 82 233 0 0 -17 62 0 185 38 230 60 155 153 0 149 -17 11
0 0 194 108 137 83 55 129 0 90 -17 55 0 89 91 90 53 110 129 0 137 +14 176 452 0
 ?19 178 70 6 192 +0 0 19 178 25 50 192 470 0 176 187 189 0 +.02027930989548625
 -.01170826502713886 -.0697 -.866025403784438 .5 0 -.5 -.866025403784438 0 50 18
7 469 0 113 183 192 0 +.025851759080062 .000684288397997837 -.0697 .5 .866025403
784441 0 -.866025403784441 .5 0 19 18 490 0 1 0 10 6 0 S0 74 4 CI16 index_map_of
fset0 0 1 dCCZ20 16 3 0 0 296 14 2 0 0 0 0 0 0 0 0 0 0 0 0 0 0 0 0 0 81 1 296 16
35 297 1 0 14 0 0 298 81 1 14 1636 299 1 296 2 0 0 300 80 7 CCCCCDI12 legal_owne
rs0 17 1 lCZ1 299 13 301 8038 0 0 0 0 0 0 0 0 0 TTTTTTTTTTTTTFTFT10 98 255 6 300
 80 97 114 116 32 55 79 255 14 301 SDL/TYSA_UNAME80 1 297 302 303 8040 0 0 0 0 3
 5 0 0 0 TTTFFFFFFFFFFFFFF2 83 255 3 298 .768627450980392 .886274509803922 .9529
41176470588 79 17 303 SDL/TYSA_COLOUR_280 1 13 304 305 8017 0 0 0 0 0 0 0 0 0 TT
TTTTTTTTTTTFTFT3 84 255 6 15 Part 779 13 305 SDL/TYSA_NAME1 0 
