**ABCDEFGHIJKLMNOPQRSTUVWXYZabcdefghijklmnopqrstuvwxyz**************************
**PARASOLID !"#$%&'()*+,-./:;<=>?@[\]^_`{|}~0123456789**************************
**PART1;
MC=unknown;
MC_MODEL=unknown;
MC_ID=unknown;
OS=unknown;
OS_RELEASE=unknown;
FRU=Parasolid 37.0.173;
APPL=Onshape;
SITE=unknown;
USER=unknown;
FORMAT=text;
GUISE=transmit;
KEY=BTGapi::writeModels_.xmt;
FILE=BTGapi::writeModels_.xmt;
DATE=2024-12-24T11:44:24 (UTC);
**PART2;
SCH=SCH_3700173_36001;
USFLD_SIZE=0;
**PART3;
**END_OF_HEADER*****************************************************************
T51 : TRANSMIT FILE created by modeller version 370017323 SCH_3700173_36001_1300
6231 0 12 36 CCCI7 lattice222 0 CCCI4 mesh1006 0 I8 polyline1008 0 CCCCCCCDI5 ow
ner1040 0 CCCI16 boundary_lattice222 0 CCCI13 boundary_mesh1006 0 I17 boundary_p
olyline1008 0 CCCA16 index_map_offset0 0 1 dA9 index_map82 0 A17 node_id_index_m
ap82 0 A20 schema_embedding_map82 0 A5 child12 0 A14 lowest_node_id0 0 1 dA16 me
sh_offset_data206 0 Z1 1224 2 3 0 0 0 0 0 0 0 1e3 1e-8 0 4 5 1 0 1 2 6 0 7 8 9 0
 0 10 11 12 0 0 0 0 0 0 0 81 255 1 2 1224 13 1 14 0 0 0 15 70 11 CI9 list_type0
 0 1 uI10 notransmit0 0 1 lCCCDCCDI12 finger_index0 0 1 dI12 finger_block1012 0
 CZ3 0 4 T1 0 0 3 20 1 16 16 13 255 6 221 0 1 0 17 0 0 18 0 51 255 7 220 0 17 19
 0 0 -.02057104338575335 -.00610302081648321 .000730090040000013 0 0 -1 .0027366
4027595883 -.965925826289068 -.2588190451025205 0 31 255 8 275 0 20 21 0 0 +.020
57104338575335 -.00610302081648321 -.04626990996 0 0 1 .965925826289068 .2588190
451025205 0 .00273664027595883 29 255 9 266 0 12 22 0 .02321443490556485 -.00539
472619347045 -.04626990996 19 9 CCCCCCI5 frame230 0 CA5 owner12 0 Z10 107 0 1 18
 0 23 0 V0 16 255 11 290 0 ?24 0 25 8 25 20 1 18 255 12 264 0 26 0 27 9 ?1 17 25
5 26 0 28 29 30 12 31 32 0 33 +18 27 256 0 34 12 35 22 ?1 17 34 0 36 37 38 27 39
 40 0 41 -18 35 253 0 38 27 42 43 ?1 29 22 258 0 27 43 9 .02127933800876615 -.00
345962929667174 -.05626990996 29 43 255 0 35 44 22 .01863594648895465 -.00416792
3919684505 -.05626990996 29 44 252 0 42 45 43 .0179276518659419 -.00681131543949
598 -.05626990996 18 42 250 0 46 35 47 44 ?1 29 45 249 0 47 48 44 .0198627487627
406 -.00874641233629469 -.05626990996 18 47 247 0 49 42 50 45 ?1 29 48 242 0 50
 51 45 .02250614028255205 -.00803811771328193 -.05626990996 18 50 240 0 52 47 53
 48 ?1 29 51 670 0 53 54 48 .02250614028255205 -.00803811771328193 -.04626990996
 18 53 533 0 29 50 55 51 ?1 29 54 671 0 55 56 51 .0198627487627406 -.00874641233
629469 -.04626990996 18 55 532 0 57 53 58 54 ?1 29 56 672 0 58 59 54 .0179276518
659419 -.00681131543949598 -.04626990996 18 58 531 0 60 55 61 56 ?1 29 59 673 0
 61 62 56 .01863594648895465 -.004167923919684505 -.04626990996 18 61 530 0 63 5
8 64 59 ?1 29 62 674 0 64 65 59 .02127933800876615 -.00345962929667174 -.0462699
0996 18 64 529 0 66 61 67 62 ?1 29 65 679 0 67 68 62 .02321443490556485 -.005394
72619347045 -.05626990996 18 67 516 0 37 64 69 65 ?1 29 68 681 0 70 71 65 .02138
891156827735 -.00915534642755667 -.05626990996 18 70 511 0 72 73 74 68 ?1 29 71
 682 0 74 75 68 .0197531752032294 -.00305069520540976 -.05626990996 18 74 502 0
 76 70 77 71 ?1 29 75 683 0 77 78 71 .0236233689968268 -.00692088899900718 -.056
26990996 18 77 514 0 79 74 80 75 ?1 29 78 684 0 80 81 75 .01833658595720385 -.00
833747824503271 -.05626990996 18 80 508 0 82 77 83 78 ?1 29 81 685 0 83 84 78 .0
175187177746799 -.00528515263395925 -.05626990996 18 83 505 0 85 80 86 81 ?1 29
 84 686 0 86 87 81 .02280550081430285 -.003868563387933725 -.05626990996 18 86 5
17 0 88 83 0 84 ?1 29 87 687 0 69 89 84 .02138891156827735 -.00915534642755667 -
.04626990996 18 69 527 0 90 67 91 87 ?1 29 89 688 0 91 92 87 .0197531752032294 -
.00305069520540976 -.04626990996 18 91 521 0 93 69 94 89 ?1 29 92 689 0 94 95 89
 .0236233689968268 -.00692088899900718 -.04626990996 18 94 535 0 30 91 96 92 ?1
 29 95 690 0 96 97 92 .01833658595720385 -.00833747824503271 -.04626990996 18 96
 525 0 98 94 99 95 ?1 29 97 691 0 99 100 95 .0175187177746799 -.0052851526339592
5 -.04626990996 18 99 523 0 101 96 73 97 ?1 29 100 692 0 73 0 97 .02280550081430
285 -.003868563387933725 -.04626990996 18 73 519 0 102 99 70 100 ?1 17 102 0 103
 104 105 73 33 106 0 107 +15 255 103 568 0 105 108 0 17 104 0 103 105 102 64 109
 110 0 24 +17 105 0 103 102 104 12 24 11 0 111 -17 33 0 112 31 107 12 102 106 0
 105 -16 106 411 0 ?102 32 113 114 32 32 1 17 107 0 112 33 88 73 115 116 0 109 -
15 112 560 0 33 117 0 17 88 0 112 107 118 86 119 120 0 115 +17 115 0 121 122 109
 86 107 116 0 123 +16 116 456 0 ?115 124 125 126 0 0 1 17 109 0 121 115 127 73 1
04 110 0 0 -15 121 540 0 127 128 0 17 127 0 121 109 129 64 93 130 0 104 -16 110
 414 0 ?104 131 130 132 130 130 1 16 131 423 0 ?101 133 110 134 133 133 1 16 130
 417 0 ?93 110 32 132 110 110 1 30 255 132 667 0 110 114 134 0 +.022042419411534
5 -.003664096342302735 -.04626990996 -.965925826289068 .258819045102521 0 30 114
 668 0 32 0 132 0 +.02300996785993385 -.00463164479070209 -.04626990996 -.258819
045102521 .965925826289068 0 30 134 666 0 133 132 135 0 +.0180773321318173 -.004
72653827682188 -.04626990996 -.707106781186548 -.707106781186547 0 16 133 420 0
 ?136 137 131 134 131 131 1 30 135 665 0 138 134 139 0 +.0177231848203109 -.0060
4823403672761 -.04626990996 .2588190451025205 -.965925826289068 0 16 138 426 0 ?
140 141 137 135 137 137 1 30 139 664 0 142 135 143 0 +.01909966735997225 -.00854
19452906637 -.04626990996 .965925826289068 -.2588190451025215 0 16 142 432 0 ?14
4 145 141 139 141 141 1 30 143 663 0 125 139 146 0 +.02306475463968945 -.0074795
0335614456 -.04626990996 .707106781186548 .707106781186547 0 16 125 438 0 ?147 1
16 145 143 145 145 1 30 146 662 0 148 143 149 0 +.02300996785993385 -.0046316447
9070209 -.05626990996 -.258819045102521 .965925826289068 0 16 148 489 0 ?118 150
 120 146 120 120 1 30 149 661 0 151 146 152 0 +.0220424194115345 -.0036640963423
02735 -.05626990996 -.965925826289068 .258819045102521 0 16 151 459 0 ?122 153 1
50 149 150 150 1 30 152 660 0 154 149 155 0 +.0180773321318173 -.004726538276821
88 -.05626990996 -.707106781186548 -.707106781186547 0 16 154 465 0 ?156 157 153
 152 153 153 1 30 155 659 0 158 152 159 0 +.0177231848203109 -.00604823403672761
 -.05626990996 .2588190451025205 -.965925826289068 0 16 158 471 0 ?160 161 157 1
55 157 157 1 30 159 658 0 162 155 163 0 +.01909966735997225 -.0085419452906637 -
.05626990996 .965925826289068 -.2588190451025215 0 16 162 477 0 ?164 165 161 159
 161 161 1 30 163 657 0 113 159 166 0 +.02306475463968945 -.00747950335614456 -.
05626990996 .707106781186548 .707106781186547 0 16 113 483 0 ?167 106 165 163 16
5 165 1 30 166 656 0 168 163 169 0 +.02138891156827735 -.00915534642755667 -.046
26990996 0 0 -1 16 168 480 0 ?170 171 124 166 0 0 1 30 169 655 0 172 166 173 0 +
.0197531752032294 -.00305069520540976 -.04626990996 0 0 -1 16 172 462 0 ?174 175
 176 169 0 0 1 30 173 654 0 124 169 177 0 +.0236233689968268 -.00692088899900718
 -.04626990996 0 0 -1 16 124 486 0 ?178 168 116 173 0 0 1 30 177 653 0 171 173 1
79 0 +.01833658595720385 -.00833747824503271 -.04626990996 0 0 -1 16 171 474 0 ?
180 176 168 177 0 0 1 30 179 652 0 176 177 126 0 +.0175187177746799 -.0052851526
3395925 -.04626990996 0 0 -1 16 176 468 0 ?181 172 171 179 0 0 1 30 126 651 0 11
6 179 182 0 +.02280550081430285 -.003868563387933725 -.04626990996 0 0 -1 31 182
 23 0 183 126 184 0 +.02057104338575335 -.00610302081648321 .000730090040000013
 0 0 1 .965925826289068 .2588190451025205 0 .00273664027595883 16 183 21 0 ?185
 186 175 182 0 0 1 31 184 215 0 175 182 21 0 +.02057104338575335 -.0061030208164
8321 -.05726990996 0 0 1 .965925826289068 .2588190451025205 0 .00273664027595883
 16 175 196 0 ?187 183 172 184 0 0 1 31 21 246 0 186 184 8 0 +.02057104338575335
 -.00610302081648321 -.05626990996 0 0 1 .965925826289068 .2588190451025205 0 .0
0273664027595883 16 186 244 0 ?188 189 183 21 190 189 1 17 188 0 191 192 193 67
 52 186 0 119 +16 189 248 0 ?194 195 186 21 186 195 1 16 190 259 0 ?41 20 40 21
 40 186 1 17 41 0 196 123 119 27 37 190 0 197 +16 20 273 0 ?111 198 190 8 11 198
 1 16 40 257 0 ?39 190 199 21 199 190 1 17 39 0 200 201 197 35 34 40 0 202 +16 1
99 254 0 ?203 40 195 21 195 40 1 17 203 0 204 205 202 42 38 199 0 206 +16 195 25
1 0 ?207 199 189 21 189 199 1 17 207 0 208 209 206 47 46 195 0 210 +15 208 604 0
 206 211 0 17 209 0 208 206 207 80 164 162 0 0 -17 206 0 208 207 209 42 82 157 0
 160 -17 46 0 36 38 49 42 207 195 0 203 -17 210 0 212 194 213 47 72 161 0 164 -1
5 212 608 0 210 214 0 17 194 0 212 213 210 50 49 189 0 193 +17 213 0 212 210 194
 70 167 113 0 0 -17 72 0 215 216 164 70 210 161 0 170 +16 161 378 0 ?72 162 158
 159 162 162 1 17 164 0 215 72 180 47 209 162 0 0 +15 215 552 0 217 218 0 17 180
 0 215 164 219 80 220 171 0 209 +17 219 0 215 180 217 96 144 142 0 0 -17 220 0 2
21 222 82 96 180 171 0 219 -15 221 548 0 222 223 0 17 222 0 221 224 220 58 98 13
7 0 140 -17 82 0 221 220 160 80 206 157 0 180 +17 160 0 221 82 181 42 205 158 0
 0 +16 157 372 0 ?82 158 154 155 158 158 1 17 181 0 221 160 224 83 225 176 0 205
 +17 205 0 204 202 203 83 160 158 0 0 -15 204 600 0 202 226 0 17 202 0 204 203 2
05 35 85 153 0 156 -17 85 0 227 225 156 83 202 153 0 181 +16 153 366 0 ?85 154 1
51 152 154 154 1 17 156 0 227 85 174 35 201 154 0 0 +15 227 544 0 228 229 0 17 1
74 0 227 156 230 74 129 172 0 0 +17 201 0 200 197 39 74 156 154 0 174 -15 200 59
6 0 197 231 0 17 197 0 200 39 201 27 76 150 0 122 -17 76 0 121 129 122 74 197 15
0 0 201 +16 150 360 0 ?76 151 148 149 151 151 1 17 122 0 121 76 115 27 123 151 0
 0 +17 123 0 196 119 41 86 122 151 0 0 -15 196 592 0 119 232 0 17 119 0 196 41 1
23 67 88 120 0 118 -16 120 390 0 ?88 148 0 146 148 148 1 17 118 0 112 88 178 67
 192 148 0 0 +17 178 0 112 118 31 77 233 124 0 192 +17 192 0 191 193 188 77 118
 148 0 0 -15 191 640 0 193 234 0 17 193 0 191 188 192 50 79 165 0 167 -17 79 0 2
35 233 167 77 193 165 0 178 +16 165 384 0 ?79 113 162 163 113 113 1 17 167 0 235
 79 170 50 213 113 0 0 +15 235 556 0 236 237 0 17 170 0 235 167 238 70 216 168 0
 213 +17 238 0 235 170 236 69 147 125 0 0 -17 216 0 215 217 72 69 170 168 0 238
 -17 217 0 215 219 216 55 90 141 0 144 -17 90 0 239 147 57 69 217 141 0 216 +16
 141 435 0 ?90 142 138 139 142 142 1 17 144 0 240 60 98 55 219 142 0 241 +15 240
 580 0 60 242 0 17 60 0 240 98 144 58 241 243 0 222 -17 98 0 240 144 60 96 222 1
37 0 220 +17 241 0 244 245 246 55 60 243 0 0 +15 244 241 0 111 17 247 17 245 0 2
44 111 241 53 57 198 0 0 +17 246 0 244 241 248 58 63 249 0 0 +16 243 280 0 ?241
 249 198 8 198 249 1 16 249 283 0 ?246 25 243 8 243 25 1 16 198 277 0 ?245 243 2
0 8 20 243 1 16 25 285 0 ?248 11 249 8 249 11 1 17 248 0 244 246 24 61 66 25 0 0
 +17 24 0 244 248 111 64 105 11 0 0 +17 66 0 250 93 136 64 248 25 0 127 -15 250
 572 0 66 251 0 17 93 0 250 136 66 91 127 130 0 230 +17 136 0 250 66 93 61 230 1
33 0 248 +17 230 0 227 174 228 91 136 133 0 129 -17 228 0 227 230 225 61 101 131
 0 136 -17 129 0 121 127 76 91 174 172 0 0 -17 225 0 227 228 85 99 181 176 0 224
 -17 101 0 252 140 63 99 228 131 0 225 +15 252 576 0 63 253 0 17 140 0 252 63 10
1 58 224 138 0 246 +17 63 0 252 101 140 61 246 249 0 228 -17 224 0 221 181 222 9
9 140 138 0 0 -14 255 253 573 0 ?242 251 252 6 254 +242 251 242 251 23 14 242 57
7 0 ?255 253 240 6 254 +255 253 255 253 23 14 251 569 0 ?253 108 250 6 254 +253
 108 253 108 23 50 255 254 650 0 256 0 257 0 +.02057104338575335 -.0061030208164
8322 -.04626990996 0 0 1 .965925826289068 .2588190451025205 0 13 23 108 0 0 0 0
 0 0 10 17 14 17 217 0 ?258 0 244 6 7 -259 259 258 0 23 14 258 1 0 ?128 17 260 6
 261 +0 0 128 17 23 14 259 261 0 ?0 262 263 6 7 -17 17 0 262 23 14 262 183 0 ?25
9 234 264 6 19 -0 0 259 234 23 15 263 218 0 187 259 36 17 187 0 263 187 187 0 26
5 175 0 0 +15 36 260 0 37 259 0 17 37 0 36 52 34 67 41 190 0 188 -17 52 0 36 49
 37 50 188 186 0 194 -17 49 0 36 46 52 47 194 189 0 207 -17 265 0 264 265 265 0
 187 175 0 0 -15 264 195 0 265 262 0 14 234 637 0 ?262 256 191 6 257 -232 214 26
2 256 23 50 19 214 0 262 261 7 0 +.02057104338575335 -.00610302081648322 -.05726
990996 0 0 1 .965925826289068 .2588190451025205 0 50 261 3 0 258 266 19 0 +.0205
7104338575335 -.00610302081648322 .000730090040000013 0 0 1 .965925826289068 .25
88190451025205 0 50 266 643 0 117 267 261 0 +.02300996785993385 -.00463164479070
209 -.04626990996 -.965925826289068 -.258819045102521 0 .258819045102521 -.96592
5826289068 0 14 117 629 0 ?108 237 112 6 266 -0 0 108 237 23 50 267 644 0 128 26
8 266 0 +.0220424194115345 -.003664096342302735 -.04626990996 -.258819045102521
 -.965925826289068 0 .965925826289068 -.258819045102521 0 14 128 609 0 ?229 258
 121 6 267 -0 0 229 258 23 50 268 645 0 229 269 267 0 +.0180773321318173 -.00472
653827682188 -.04626990996 .707106781186547 -.707106781186548 0 .707106781186548
 .707106781186548 0 14 229 613 0 ?223 128 227 6 268 -0 0 223 128 23 50 269 646 0
 223 270 268 0 +.0177231848203109 -.00604823403672761 -.04626990996 .96592582628
9068 .2588190451025205 0 0 0 -1 14 223 617 0 ?218 229 221 6 269 -0 0 218 229 23
 50 270 647 0 218 271 269 0 +.01909966735997225 -.0085419452906637 -.04626990996
 .2588190451025215 .965925826289068 0 -.965925826289068 .2588190451025215 0 14 2
18 621 0 ?237 223 215 6 270 -0 0 237 223 23 50 271 648 0 237 257 270 0 +.0230647
5463968945 -.00747950335614456 -.04626990996 -.707106781186547 .707106781186548
 0 -.707106781186548 -.707106781186547 0 14 237 625 0 ?117 218 235 6 271 -0 0 11
7 218 23 50 257 649 0 234 254 271 0 +.02057104338575335 -.00610302081648322 -.05
626990996 0 0 1 .965925826289068 .2588190451025205 0 14 108 565 0 ?251 117 103 6
 254 +251 256 251 117 23 14 256 633 0 ?234 214 28 6 254 +108 255 234 214 23 14 2
14 605 0 ?256 211 212 6 257 -234 211 256 211 23 15 28 636 0 29 256 0 14 255 581
 0 ?232 242 239 6 254 +256 242 232 242 23 14 232 589 0 ?231 255 196 6 257 -231 2
34 231 255 23 15 239 584 0 57 255 0 17 57 0 239 90 147 55 245 198 0 217 -17 147
 0 239 57 90 53 238 125 0 245 +14 231 593 0 ?226 232 200 6 257 -226 232 226 232
 23 14 226 597 0 ?211 231 204 6 257 -211 231 211 231 23 14 211 601 0 ?214 226 20
8 6 257 -214 226 214 226 23 17 29 0 28 30 26 53 111 20 0 236 -17 30 0 28 26 29 9
4 236 145 0 233 +17 111 0 244 24 245 12 29 20 0 0 +17 236 0 235 238 233 53 30 14
5 0 147 -17 233 0 235 236 79 94 178 124 0 31 -16 145 492 0 ?30 125 142 143 125 1
25 1 17 31 0 112 178 33 94 26 32 0 0 -16 32 495 0 ?26 130 106 114 106 106 1 15 2
60 111 0 185 258 0 17 185 0 260 185 185 0 272 183 0 0 +17 272 0 247 272 272 0 18
5 183 0 0 -15 247 216 0 272 17 0 16 137 429 0 ?98 138 133 135 138 138 1 17 38 0
 36 34 46 35 203 199 0 39 -19 18 222 0 1 0 10 6 0 S0 74 4 CI16 index_map_offset0
 0 1 dCCZ20 16 3 0 0 273 14 2 0 0 0 0 0 0 0 0 0 0 0 0 0 0 0 0 0 81 1 273 1222 27
4 1 0 14 0 0 275 81 1 14 1223 276 1 273 2 0 0 277 80 7 CCCCCDI12 legal_owners0 1
7 1 lCZ1 276 13 278 8038 0 0 0 0 0 0 0 0 0 TTTTTTTTTTTTTFTFT10 98 255 7 277 97 1
10 116 101 110 110 97 79 255 14 278 SDL/TYSA_UNAME80 1 274 279 280 8040 0 0 0 0
 3 5 0 0 0 TTTFFFFFFFFFFFFFF2 83 255 3 275 .980392156862745 .713725490196078 .00
392156862745098 79 17 280 SDL/TYSA_COLOUR_280 1 13 281 282 8017 0 0 0 0 0 0 0 0
 0 TTTTTTTTTTTTTFTFT3 84 255 7 15 antenna79 13 282 SDL/TYSA_NAME1 0 
