**ABCDEFGHIJKLMNOPQRSTUVWXYZabcdefghijklmnopqrstuvwxyz**************************
**PARASOLID !"#$%&'()*+,-./:;<=>?@[\]^_`{|}~0123456789**************************
**PART1;
MC=unknown;
MC_MODEL=unknown;
MC_ID=unknown;
OS=unknown;
OS_RELEASE=unknown;
FRU=Parasolid 37.0.173;
APPL=Onshape;
SITE=unknown;
USER=unknown;
FORMAT=text;
GUISE=transmit;
KEY=BTGapi::writeModels_.xmt;
FILE=BTGapi::writeModels_.xmt;
DATE=2024-12-24T11:44:24 (UTC);
**PART2;
SCH=SCH_3700173_36001;
USFLD_SIZE=0;
**PART3;
**END_OF_HEADER*****************************************************************
T51 : TRANSMIT FILE created by modeller version 370017323 SCH_3700173_36001_1300
6231 0 12 36 CCCI7 lattice222 0 CCCI4 mesh1006 0 I8 polyline1008 0 CCCCCCCDI5 ow
ner1040 0 CCCI16 boundary_lattice222 0 CCCI13 boundary_mesh1006 0 I17 boundary_p
olyline1008 0 CCCA16 index_map_offset0 0 1 dA9 index_map82 0 A17 node_id_index_m
ap82 0 A20 schema_embedding_map82 0 A5 child12 0 A14 lowest_node_id0 0 1 dA16 me
sh_offset_data206 0 Z1 2661 2 3 0 0 0 0 0 0 0 1e3 1e-8 0 4 5 1 0 1 2 6 0 7 8 9 0
 0 10 11 12 0 0 0 0 0 0 0 81 255 1 2 2661 13 1 14 0 0 0 15 70 11 CI9 list_type0
 0 1 uI10 notransmit0 0 1 lCCCDCCDI12 finger_index0 0 1 dI12 finger_block1012 0
 CZ3 0 4 T1 0 0 3 20 1 16 16 13 255 6 1707 0 1 0 17 0 0 18 0 50 255 7 1678 0 19
 20 0 0 +.02168751379865125 .00308851653219195 -.0697 -.5 -.866025403784437 0 .8
66025403784437 -.5 0 30 255 8 1706 0 21 22 0 0 +.02027431894691425 .000640791247
988679 -.0741217292740195 .866025403784437 -.5 0 29 255 9 1542 0 23 24 0 .009987
67647038641 -.0213761961606535 -.0997 19 9 CCCCCCI5 frame230 0 CA5 owner12 0 Z10
 622 0 1 18 0 25 0 V0 16 255 11 1580 0 ?26 0 27 28 0 0 1 18 255 12 616 0 29 0 30
 31 ?1 17 255 29 0 32 33 34 12 35 36 0 37 +18 30 611 0 34 12 38 39 ?1 29 31 618
 0 12 39 40 .00816902312243909 -.0203261961606535 -.0997 29 39 613 0 30 41 31 .0
0958221797417611 -.01787847087645025 -.0997 29 40 1569 0 42 31 43 .0220929722948
6155 -.000409208752011327 -.0741217292740195 18 42 1512 0 44 45 0 40 ?1 29 43 15
68 0 45 40 46 .02209297229486155 -.000409208752011327 -.0711217292740195 18 45 1
508 0 47 48 42 43 ?1 29 46 1567 0 48 43 49 .02209297229486155 -.0004092087520113
27 -.0697 18 48 1504 0 50 51 45 46 ?1 29 49 1566 0 51 46 52 .0235061671465986 .0
02038516532191945 -.0697 18 51 1500 0 53 54 48 49 ?1 29 52 1565 0 54 49 55 .0220
9297229486155 -.000409208752011327 -.078431659517981 18 54 1496 0 56 57 51 52 ?1
 29 55 1564 0 57 52 58 .02209297229486155 -.000409208752011327 -.087431659517981
 18 57 1492 0 59 60 54 55 ?1 29 58 1563 0 60 55 61 .02209297229486155 -.00040920
8752011327 -.0912509269710914 18 60 1488 0 62 63 57 58 ?1 29 61 1562 0 63 58 64
 .02209297229486155 -.000409208752011327 -.0962509269710914 18 63 1484 0 65 66 6
0 61 ?1 29 64 1561 0 66 61 67 .0235061671465986 .002038516532191945 -.0997 18 66
 1480 0 68 69 63 64 ?1 29 67 1560 0 69 64 70 .02209297229486155 -.00040920875201
1327 -.0997 18 69 1476 0 71 72 66 67 ?1 29 70 1559 0 72 67 73 .02000616714659855
 -.004023661294299115 -.0912509269710914 18 72 1472 0 74 75 69 70 ?1 29 73 1558
 0 75 70 76 .01140087132212342 -.01892847087645025 -.0962509269710914 18 75 1468
 0 77 78 72 73 ?1 29 76 1557 0 78 73 79 .01140087132212342 -.01892847087645025 -
.0912509269710914 18 78 1464 0 80 81 75 76 ?1 29 79 1556 0 81 76 82 .01348767647
038642 -.01531401833416245 -.0912509269710914 18 81 1460 0 83 84 78 79 ?1 29 82
 1555 0 84 79 85 .01348767647038642 -.01531401833416245 -.087431659517981 18 84
 1456 0 86 87 81 82 ?1 29 85 1554 0 87 82 88 .02000616714659855 -.00402366129429
9115 -.087431659517981 18 87 1452 0 89 90 84 85 ?1 29 88 1553 0 90 85 91 .020006
16714659855 -.004023661294299115 -.078431659517981 18 90 1448 0 92 93 87 88 ?1 2
9 91 1552 0 93 88 94 .01348767647038642 -.01531401833416245 -.078431659517981 18
 93 1444 0 26 95 90 91 ?1 29 94 1551 0 95 91 96 .01348767647038642 -.01531401833
416245 -.0741217292740195 18 95 1440 0 97 98 93 94 ?1 29 96 1550 0 98 94 99 .020
00616714659855 -.004023661294299115 -.0741217292740195 18 98 1436 0 100 101 95 9
6 ?1 29 99 1549 0 101 96 102 .01140087132212342 -.01892847087645025 -.0741217292
740195 18 101 1432 0 103 104 98 99 ?1 29 102 1548 0 104 99 105 .0114008713221234
2 -.01892847087645025 -.0711217292740195 18 104 1428 0 106 107 101 102 ?1 29 105
 1547 0 107 102 108 .01140087132212342 -.01892847087645025 -.087431659517981 18
 107 1424 0 109 110 104 105 ?1 29 108 1546 0 110 105 111 .01140087132212342 -.01
892847087645025 -.078431659517981 18 110 1420 0 112 113 107 108 ?1 29 111 1545 0
 113 108 114 .00998767647038641 -.0213761961606535 -.0697 18 113 1416 0 115 116
 110 111 ?1 29 114 1544 0 116 111 24 .01140087132212342 -.01892847087645025 -.06
97 18 116 1412 0 117 118 113 114 ?1 29 24 1543 0 118 114 9 .01140087132212342 -.
01892847087645025 -.0997 18 118 1408 0 119 23 116 24 ?1 17 119 0 120 121 122 118
 123 124 0 125 +18 23 1404 0 126 127 118 9 ?1 17 126 0 128 37 125 23 129 130 0 1
31 +18 127 421 0 132 133 23 134 ?1 17 132 0 135 136 137 127 44 21 0 138 -18 133
 426 0 139 140 127 141 ?1 29 134 423 0 127 0 141 .02027431894691425 .00064079124
7988679 -.0741217292740195 29 141 428 0 133 134 142 .02027431894691425 .00064079
1247988679 -.0711217292740195 29 142 433 0 140 141 143 .02027431894691425 .00064
0791247988679 -.0697 18 140 431 0 144 145 133 142 ?1 29 143 438 0 145 142 146 .0
2168751379865125 .00308851653219195 -.0697 18 145 436 0 147 148 140 143 ?1 29 14
6 448 0 148 143 149 .02027431894691425 .000640791247988679 -.078431659517981 18
 148 446 0 150 151 145 146 ?1 29 149 453 0 151 146 152 .02027431894691425 .00064
0791247988679 -.087431659517981 18 151 451 0 153 154 148 149 ?1 29 152 468 0 154
 149 155 .02027431894691425 .000640791247988679 -.0912509269710914 18 154 466 0
 156 157 151 152 ?1 29 155 478 0 157 152 158 .02027431894691425 .000640791247988
679 -.0962509269710914 18 157 476 0 159 160 154 155 ?1 29 158 483 0 160 155 161
 .02168751379865125 .00308851653219195 -.0997 18 160 481 0 162 163 157 158 ?1 29
 161 488 0 163 158 164 .02027431894691425 .000640791247988679 -.0997 18 163 486
 0 165 166 160 161 ?1 29 164 493 0 166 161 167 .01818751379865125 -.002973661294
29911 -.0912509269710914 18 166 491 0 168 169 163 164 ?1 29 167 498 0 169 164 17
0 .00958221797417612 -.01787847087645025 -.0962509269710914 18 169 496 0 171 172
 166 167 ?1 29 170 503 0 172 167 173 .00958221797417611 -.01787847087645025 -.09
12509269710914 18 172 501 0 174 175 169 170 ?1 29 173 508 0 175 170 176 .0116690
231224391 -.01426401833416246 -.0912509269710914 18 175 506 0 177 178 172 173 ?1
 29 176 513 0 178 173 179 .0116690231224391 -.01426401833416246 -.08743165951798
1 18 178 511 0 180 181 175 176 ?1 29 179 518 0 181 176 182 .01818751379865125 -.
00297366129429911 -.087431659517981 18 181 516 0 183 184 178 179 ?1 29 182 523 0
 184 179 185 .01818751379865125 -.00297366129429911 -.078431659517981 18 184 521
 0 186 187 181 182 ?1 29 185 528 0 187 182 188 .0116690231224391 -.0142640183341
6246 -.078431659517981 18 187 526 0 189 190 184 185 ?1 29 188 533 0 190 185 191
 .0116690231224391 -.01426401833416246 -.0741217292740195 18 190 531 0 192 193 1
87 188 ?1 29 191 538 0 193 188 194 .01818751379865125 -.00297366129429911 -.0741
217292740195 18 193 536 0 195 196 190 191 ?1 29 194 553 0 196 191 197 .009582217
97417611 -.01787847087645025 -.0741217292740195 18 196 551 0 198 199 193 194 ?1
 29 197 558 0 199 194 200 .00958221797417612 -.01787847087645025 -.0711217292740
195 18 199 556 0 201 202 196 197 ?1 29 200 563 0 202 197 203 .00958221797417612
 -.01787847087645025 -.087431659517981 18 202 561 0 204 205 199 200 ?1 29 203 56
8 0 205 200 206 .00958221797417612 -.01787847087645025 -.078431659517981 18 205
 566 0 207 208 202 203 ?1 29 206 603 0 208 203 41 .00816902312243909 -.020326196
1606535 -.0697 18 208 601 0 33 38 205 206 ?1 29 41 608 0 38 206 39 .009582217974
17612 -.01787847087645025 -.0697 18 38 606 0 209 30 208 41 ?1 17 209 0 32 201 33
 38 210 211 0 212 +15 255 32 1005 0 213 214 215 17 201 0 32 216 209 199 217 218
 0 219 +17 33 0 32 209 29 208 220 221 0 222 +17 210 0 223 224 212 208 209 211 0
 0 -16 211 391 0 ?209 225 218 226 0 0 1 17 212 0 223 210 117 38 227 228 0 217 -1
5 223 1602 0 117 229 0 17 117 0 223 212 224 116 230 231 0 227 +17 227 0 232 233
 217 116 212 228 0 234 +16 228 1572 0 ?227 235 236 237 0 0 1 17 217 0 232 227 21
9 38 201 218 0 0 -15 232 1604 0 233 238 0 17 219 0 232 217 233 199 106 236 0 239
 -16 218 381 0 ?201 211 240 241 0 0 1 16 240 356 0 ?207 218 242 243 0 0 1 30 241
 383 0 218 243 226 0 +.00958221797417612 -.01787847087645025 -.0704108646370098
 0 0 -1 30 243 358 0 240 244 241 0 +.00958221797417612 -.01787847087645025 -.076
2766943960002 0 0 -1 30 226 393 0 211 241 245 0 +.00887562054830761 -.0191023335
185519 -.0697 .5 .866025403784437 0 30 245 398 0 225 226 246 0 +.009582217974176
12 -.01787847087645025 -.0979754634855457 0 0 -1 16 225 396 0 ?34 36 211 245 0 0
 1 30 246 403 0 36 245 247 0 +.00887562054830761 -.0191023335185519 -.0997 -.5 -
.866025403784437 0 16 36 401 0 ?29 248 225 246 0 0 1 30 247 1541 0 249 246 250 0
 +.0235061671465986 .002038516532191945 -.0697 0 0 -1 16 249 1388 0 ?251 252 0 2
47 0 0 1 30 250 1540 0 253 247 254 0 +.02209297229486155 -.000409208752011327 -.
0697 0 0 -1 16 253 1364 0 ?255 256 257 250 258 252 1 30 254 1539 0 259 250 260 0
 +.02279956972073005 .000814653890090308 -.0697 -.5 -.866025403784437 0 16 259 1
380 0 ?261 262 252 254 0 0 1 30 260 1538 0 257 254 263 0 +.02279956972073005 .00
0814653890090308 -.0997 -.5 -.866025403784437 0 16 257 1368 0 ?264 253 258 260 0
 0 1 30 263 1537 0 256 260 265 0 +.02104956972073005 -.00221643502315522 -.09125
09269710914 .5 .866025403784437 0 16 256 1360 0 ?266 267 253 263 0 0 1 30 265 15
36 0 267 263 268 0 +.0167469218084925 -.00966883981423079 -.0962509269710914 -.5
 -.866025403784437 0 16 267 1356 0 ?77 269 256 265 0 0 1 30 268 1535 0 269 265 2
70 0 +.01244427389625492 -.01712124460530635 -.0912509269710914 .5 .866025403784
437 0 16 269 1352 0 ?271 272 267 268 0 0 1 30 270 1534 0 272 268 273 0 +.0134876
7647038642 -.01531401833416245 -.0893412932445362 0 0 1 16 272 1348 0 ?274 275 2
69 270 0 0 1 30 273 1533 0 275 270 276 0 +.02000616714659855 -.00402366129429911
5 -.0893412932445362 0 0 -1 16 275 1344 0 ?277 278 272 273 0 0 1 30 276 1532 0 2
78 273 279 0 +.02104956972073005 -.00221643502315522 -.078431659517981 -.5 -.866
025403784437 0 16 278 1340 0 ?280 281 275 276 0 0 1 30 279 1531 0 281 276 282 0
 +.02104956972073005 -.00221643502315522 -.087431659517981 .5 .866025403784437 0
 16 281 1336 0 ?283 284 278 279 0 0 1 30 282 1530 0 284 279 285 0 +.020006167146
59855 -.004023661294299115 -.0762766943960002 0 0 -1 16 284 1332 0 ?286 287 281
 282 0 0 1 30 285 1529 0 287 282 288 0 +.01348767647038642 -.01531401833416245 -
.0762766943960002 0 0 1 16 287 1328 0 ?289 290 284 285 0 0 1 30 288 1528 0 290 2
85 291 0 +.0167469218084925 -.00966883981423079 -.0711217292740195 -.5 -.8660254
03784437 0 16 290 1320 0 ?292 293 287 288 0 0 1 30 291 1527 0 293 288 294 0 +.02
104956972073005 -.00221643502315522 -.0741217292740195 .5 .866025403784437 0 16
 293 1316 0 ?295 296 290 291 0 0 1 30 294 1526 0 296 291 297 0 +.012444273896254
92 -.01712124460530635 -.0741217292740195 .5 .866025403784437 0 16 296 1312 0 ?2
98 299 293 294 0 0 1 30 297 1525 0 299 294 300 0 +.01244427389625492 -.017121244
60530635 -.078431659517981 -.5 -.866025403784437 0 16 299 1308 0 ?301 302 296 29
7 0 0 1 30 300 1524 0 302 297 303 0 +.01244427389625492 -.01712124460530635 -.08
7431659517981 .5 .866025403784437 0 16 302 1304 0 ?304 305 299 300 0 0 1 30 303
 1523 0 305 300 306 0 +.00998767647038641 -.0213761961606535 -.0937509269710914
 0 0 1 16 305 1288 0 ?115 307 302 303 0 0 1 30 306 1522 0 307 303 308 0 +.011400
87132212342 -.01892847087645025 -.0893412932445362 0 0 -1 16 307 1284 0 ?80 309
 305 306 0 0 1 30 308 1521 0 309 306 310 0 +.01140087132212342 -.018928470876450
25 -.0762766943960002 0 0 -1 16 309 1280 0 ?311 312 307 308 0 0 1 30 310 1520 0
 312 308 313 0 +.01140087132212342 -.01892847087645025 -.0704108646370098 0 0 -1
 16 312 1276 0 ?233 231 309 310 0 0 1 30 313 1519 0 231 310 314 0 +.010694273896
25492 -.0201523335185519 -.0697 .5 .866025403784437 0 16 231 1272 0 ?117 124 312
 313 0 0 1 30 314 1518 0 124 313 315 0 +.01140087132212342 -.01892847087645025 -
.0979754634855457 0 0 -1 16 124 1268 0 ?119 130 231 314 0 0 1 30 315 1517 0 130
 314 316 0 +.01069427389625492 -.0201523335185519 -.0997 -.5 -.866025403784437 0
 16 130 1264 0 ?126 317 124 315 0 0 1 30 316 1679 0 318 315 319 0 +.008169023122
43909 -.0203261961606535 -.0997 .866025403784437 -.5 0 16 318 1570 0 ?131 320 23
5 316 0 0 1 30 319 1680 0 320 316 237 0 +.00958221797417611 -.01787847087645025
 -.0997 .866025403784437 -.5 0 16 320 1571 0 ?125 321 318 319 0 0 1 30 237 1681
 0 228 319 322 0 +.00958221797417612 -.01787847087645025 -.0697 .866025403784437
 -.5 0 30 322 1682 0 235 237 323 0 +.00816902312243909 -.0203261961606535 -.0697
 .866025403784437 -.5 0 16 235 1573 0 ?224 318 228 322 0 0 1 30 323 1683 0 324 3
22 325 0 +.00958221797417612 -.01787847087645025 -.078431659517981 .866025403784
437 -.5 0 16 324 1574 0 ?112 326 327 323 0 0 1 30 325 1684 0 328 323 329 0 +.009
58221797417612 -.01787847087645025 -.087431659517981 .866025403784437 -.5 0 16 3
28 1575 0 ?109 330 331 325 0 0 1 30 329 1685 0 236 325 332 0 +.00958221797417612
 -.01787847087645025 -.0711217292740195 .866025403784437 -.5 0 16 236 1576 0 ?10
6 228 333 329 0 0 1 30 332 1686 0 326 329 334 0 +.00958221797417611 -.0178784708
7645025 -.0741217292740195 .866025403784437 -.5 0 16 326 1577 0 ?103 27 324 332
 0 0 1 30 334 1687 0 335 332 336 0 +.01818751379865125 -.00297366129429911 -.074
1217292740195 .866025403784437 -.5 0 16 335 1578 0 ?100 21 337 334 0 0 1 30 336
 1688 0 27 334 28 0 +.0116690231224391 -.01426401833416246 -.0741217292740195 .8
66025403784437 -.5 0 16 27 1579 0 ?97 11 326 336 0 0 1 30 28 1689 0 11 336 338 0
 +.0116690231224391 -.01426401833416246 -.078431659517981 .866025403784437 -.5 0
 30 338 1690 0 337 28 339 0 +.01818751379865125 -.00297366129429911 -.0784316595
17981 .866025403784437 -.5 0 16 337 1581 0 ?92 335 340 338 0 0 1 30 339 1691 0 3
41 338 342 0 +.01818751379865125 -.00297366129429911 -.087431659517981 .86602540
3784437 -.5 0 16 341 1582 0 ?89 343 344 339 0 0 1 30 342 1692 0 330 339 345 0 +.
0116690231224391 -.01426401833416246 -.087431659517981 .866025403784437 -.5 0 16
 330 1583 0 ?86 327 328 342 0 0 1 30 345 1693 0 327 342 346 0 +.0116690231224391
 -.01426401833416246 -.0912509269710914 .866025403784437 -.5 0 16 327 1584 0 ?34
7 324 330 345 0 0 1 30 346 1694 0 331 345 348 0 +.00958221797417611 -.0178784708
7645025 -.0912509269710914 .866025403784437 -.5 0 16 331 1585 0 ?349 328 343 346
 0 0 1 30 348 1695 0 321 346 350 0 +.00958221797417612 -.01787847087645025 -.096
2509269710914 .866025403784437 -.5 0 16 321 1586 0 ?122 351 320 348 0 0 1 30 350
 1696 0 344 348 352 0 +.01818751379865125 -.00297366129429911 -.0912509269710914
 .866025403784437 -.5 0 16 344 1587 0 ?353 341 354 350 0 0 1 30 352 1697 0 355 3
50 356 0 +.02027431894691425 .000640791247988679 -.0997 .866025403784437 -.5 0 1
6 355 1588 0 ?71 357 351 352 0 0 1 30 356 1698 0 357 352 358 0 +.021687513798651
25 .00308851653219195 -.0997 .866025403784437 -.5 0 16 357 1589 0 ?359 340 355 3
56 0 0 1 30 358 1699 0 351 356 360 0 +.02027431894691425 .000640791247988679 -.0
962509269710914 .866025403784437 -.5 0 16 351 1590 0 ?65 355 321 358 0 0 1 30 36
0 1700 0 354 358 361 0 +.02027431894691425 .000640791247988679 -.091250926971091
4 .866025403784437 -.5 0 16 354 1591 0 ?62 344 21 360 0 0 1 30 361 1701 0 343 36
0 362 0 +.02027431894691425 .000640791247988679 -.087431659517981 .8660254037844
37 -.5 0 16 343 1592 0 ?59 331 341 361 0 0 1 30 362 1702 0 340 361 363 0 +.02027
431894691425 .000640791247988679 -.078431659517981 .866025403784437 -.5 0 16 340
 1593 0 ?56 337 357 362 0 0 1 30 363 1703 0 248 362 364 0 +.02168751379865125 .0
0308851653219195 -.0697 .866025403784437 -.5 0 16 248 1594 0 ?53 365 36 363 0 0
 1 30 364 1704 0 365 363 22 0 +.02027431894691425 .000640791247988679 -.0697 .86
6025403784437 -.5 0 16 365 1595 0 ?50 333 248 364 0 0 1 30 22 1705 0 333 364 8 0
 +.02027431894691425 .000640791247988679 -.0711217292740195 .866025403784437 -.5
 0 16 333 1596 0 ?47 236 365 22 0 0 1 17 47 0 366 367 368 45 139 333 0 369 +15 3
66 1650 0 367 370 0 17 367 0 366 144 47 48 371 252 0 261 -17 368 0 366 47 144 13
3 372 373 0 0 +17 139 0 374 239 369 133 47 333 0 216 -17 369 0 374 139 106 45 29
2 290 0 371 -15 374 1620 0 369 375 0 17 106 0 374 369 239 104 219 236 0 233 +17
 292 0 376 234 371 104 369 290 0 0 +17 371 0 376 292 261 45 367 252 0 0 +15 376
 1259 0 377 378 379 17 261 0 376 371 377 48 380 259 0 0 +16 252 1384 0 ?371 259
 249 250 253 262 1 16 262 1376 0 ?381 258 259 250 252 258 1 17 381 0 379 280 295
 54 137 262 0 0 +16 258 1372 0 ?382 257 262 250 262 253 1 17 382 0 383 74 283 60
 384 258 0 0 +15 383 1261 0 382 378 385 17 74 0 383 386 382 72 266 256 0 353 -17
 283 0 383 382 386 57 387 281 0 0 +17 384 0 388 153 62 57 382 258 0 283 -15 388
 1644 0 384 389 0 17 153 0 388 390 384 151 59 343 0 391 -17 62 0 388 384 390 60
 392 354 0 266 +17 390 0 388 62 153 154 391 393 0 0 +17 392 0 394 168 266 154 62
 354 0 390 -17 266 0 394 392 353 60 74 256 0 382 +15 394 1638 0 266 395 0 17 353
 0 394 266 168 72 396 344 0 277 +17 168 0 394 353 392 166 156 397 0 398 -17 396
 0 399 400 277 166 353 344 0 0 -17 277 0 399 396 89 72 386 275 0 0 +15 399 1630
 0 277 401 0 17 89 0 399 277 400 87 183 341 0 386 +17 386 0 383 283 74 87 277 27
5 0 387 -17 387 0 402 183 59 87 283 281 0 0 -15 402 1626 0 387 403 0 17 183 0 40
2 404 387 181 89 341 0 400 -17 59 0 402 387 404 57 153 343 0 384 +17 404 0 402 5
9 183 151 405 406 0 0 +17 405 0 407 398 391 181 404 406 0 0 -16 406 241 0 ?404 4
08 409 410 0 0 1 16 408 246 0 ?186 411 406 412 0 0 1 16 409 236 0 ?413 406 414 4
15 0 0 1 30 410 243 0 406 415 412 0 +.01923091637278275 -.001166435023155214 -.0
87431659517981 .5 .866025403784437 0 30 415 238 0 409 416 410 0 +.01923091637278
275 -.001166435023155214 -.078431659517981 -.5 -.866025403784437 0 30 412 248 0
 408 410 417 0 +.01818751379865125 -.00297366129429911 -.0762766943960002 0 0 -1
 30 417 253 0 411 412 418 0 +.0116690231224391 -.01426401833416246 -.07627669439
60002 0 0 1 16 411 251 0 ?192 419 408 417 0 0 1 30 418 268 0 419 417 420 0 +.014
92826846054518 -.00861883981423078 -.0711217292740195 -.5 -.866025403784437 0 16
 419 266 0 ?239 421 411 418 0 0 1 30 420 283 0 421 418 422 0 +.01923091637278275
 -.001166435023155214 -.0741217292740195 .5 .866025403784437 0 16 421 281 0 ?423
 424 419 420 0 0 1 30 422 293 0 424 420 425 0 +.0106256205483076 -.0160712446053
0635 -.0741217292740195 .5 .866025403784437 0 16 424 291 0 ?426 427 421 422 0 0
 1 30 425 303 0 427 422 428 0 +.0106256205483076 -.01607124460530635 -.078431659
517981 -.5 -.866025403784437 0 16 427 301 0 ?429 430 424 425 0 0 1 30 428 308 0
 430 425 431 0 +.0106256205483076 -.01607124460530635 -.087431659517981 .5 .8660
25403784437 0 16 430 306 0 ?432 221 427 428 0 0 1 30 431 323 0 221 428 244 0 +.0
0816902312243909 -.0203261961606535 -.0937509269710914 0 0 1 16 221 321 0 ?33 24
2 430 431 0 0 1 30 244 343 0 242 431 243 0 +.00958221797417612 -.017878470876450
25 -.0893412932445362 0 0 -1 16 242 341 0 ?174 240 221 244 0 0 1 17 174 0 433 43
4 435 172 436 242 0 437 +15 433 34 0 434 214 438 17 434 0 433 180 174 175 439 44
0 0 441 +17 435 0 433 174 180 202 432 430 0 0 -17 436 0 442 109 437 202 174 242
 0 435 -17 437 0 442 436 80 172 349 331 0 439 -15 442 1608 0 80 443 0 17 80 0 44
2 437 109 78 444 307 0 349 +17 349 0 445 271 439 78 437 331 0 446 +17 439 0 445
 349 441 172 434 440 0 0 -15 445 1634 0 271 447 0 17 441 0 445 439 271 175 347 3
27 0 0 -16 440 201 0 ?434 448 449 450 0 0 1 16 448 206 0 ?180 414 440 451 0 0 1
 16 449 191 0 ?171 440 397 452 0 0 1 30 450 203 0 440 452 451 0 +.01062562054830
76 -.01607124460530635 -.0912509269710914 .5 .866025403784437 0 30 452 193 0 449
 453 450 0 +.01492826846054518 -.00861883981423078 -.0962509269710914 -.5 -.8660
25403784437 0 30 451 208 0 448 450 416 0 +.0116690231224391 -.01426401833416246
 -.0893412932445362 0 0 1 30 416 218 0 414 451 415 0 +.01818751379865125 -.00297
366129429911 -.0893412932445362 0 0 -1 16 414 216 0 ?398 409 448 416 0 0 1 17 39
8 0 407 156 405 166 400 414 0 396 +15 407 18 0 391 214 433 17 156 0 407 391 398
 154 168 397 0 392 +17 400 0 399 89 396 181 398 414 0 405 -17 391 0 407 405 156
 151 390 393 0 404 -16 397 186 0 ?156 449 454 453 0 0 1 16 454 178 0 ?455 397 45
6 457 393 373 1 30 453 188 0 397 458 452 0 +.01923091637278275 -.001166435023155
214 -.0912509269710914 .5 .866025403784437 0 30 458 175 0 456 459 453 0 +.020980
91637278275 .001864653890090315 -.0997 -.5 -.866025403784437 0 16 456 173 0 ?165
 454 393 458 0 0 1 30 459 123 0 460 457 458 0 +.02098091637278275 .0018646538900
90315 -.0697 -.5 -.866025403784437 0 16 460 121 0 ?461 462 373 459 0 0 1 30 457
 112 0 454 463 459 0 +.02027431894691425 .000640791247988679 -.0697 0 0 -1 30 46
3 102 0 317 0 457 0 +.02168751379865125 .00308851653219195 -.0697 0 0 -1 16 317
 100 0 ?213 373 130 463 0 0 1 17 213 0 32 165 464 160 465 317 0 466 +16 373 118
 0 ?368 460 317 457 454 462 1 16 462 126 0 ?136 393 460 457 373 393 1 17 136 0 1
35 56 132 148 138 462 0 0 +16 393 148 0 ?390 456 462 457 462 454 1 15 135 1646 0
 137 467 0 17 56 0 135 137 136 54 150 340 0 468 +17 138 0 215 469 470 127 136 46
2 0 423 -15 215 6 0 138 214 407 17 469 0 215 186 138 193 423 421 0 0 -17 470 0 2
15 138 186 148 413 409 0 136 -17 423 0 471 44 195 127 469 421 0 0 +15 471 1618 0
 472 473 0 17 44 0 471 472 423 42 132 21 0 137 +17 195 0 471 423 472 193 100 335
 0 474 -17 472 0 471 195 44 98 295 293 0 0 -17 100 0 475 286 474 98 195 335 0 47
6 +17 474 0 475 100 477 193 186 408 0 469 -15 475 1624 0 286 478 0 17 477 0 475
 474 286 184 92 337 0 413 -17 186 0 215 470 469 184 474 408 0 477 +17 286 0 475
 477 100 90 476 284 0 280 +17 92 0 479 468 413 90 477 337 0 286 +17 413 0 479 92
 150 184 470 409 0 0 +15 479 1628 0 468 480 0 17 150 0 479 413 468 148 56 340 0
 470 -17 468 0 479 150 92 54 280 278 0 381 -17 280 0 379 476 381 90 468 278 0 0
 +15 379 1260 0 381 378 383 17 476 0 379 295 280 98 286 284 0 472 -17 295 0 379
 381 476 42 472 293 0 0 +14 255 378 1192 0 ?0 214 376 6 481 -0 0 0 214 25 14 214
 1 0 ?378 482 32 6 483 +0 0 378 482 25 50 481 1516 0 378 483 484 0 +.01674692180
84925 -.00966883981423078 -.0847 -.866025403784437 .5 0 -.5 -.866025403784437 0
 13 25 623 0 0 0 0 0 0 10 17 14 17 1615 0 ?485 0 486 6 487 +0 0 485 0 25 14 485
 1623 0 ?488 17 489 6 490 -0 0 488 17 25 15 486 1614 0 491 17 0 50 487 1662 0 17
 492 493 0 +.0106256205483076 -.01607124460530635 -.078431659517981 0 0 1 .96592
5826289068 .2588190451025205 0 50 492 1661 0 494 495 487 0 +.0106256205483076 -.
01607124460530635 -.087431659517981 0 0 -1 -.965925826289068 -.2588190451025205
 0 50 493 1663 0 488 487 496 0 +.0106256205483076 -.01607124460530635 -.07412172
92740195 0 0 -1 -.965925826289068 -.2588190451025205 0 14 488 1617 0 ?447 485 49
7 6 493 +0 0 447 485 25 50 496 1664 0 473 493 498 0 +.01923091637278275 -.001166
435023155214 -.0741217292740195 0 0 -1 -.965925826289068 -.2588190451025205 0 14
 473 1619 0 ?478 467 471 6 496 +0 0 478 467 25 50 498 1665 0 375 496 490 0 +.014
92826846054518 -.00861883981423078 -.0711217292740195 0 0 1 .965925826289068 .25
88190451025205 0 14 375 1621 0 ?370 238 374 6 498 +0 0 370 238 25 50 490 1666 0
 485 498 499 0 +.0116690231224391 -.01426401833416246 -.0762766943960002 .5 .866
025403784437 0 -.866025403784437 .5 0 50 499 1667 0 478 490 500 0 +.018187513798
65125 -.00297366129429911 -.0762766943960002 -.5 -.866025403784437 0 .8660254037
84437 -.5 0 14 478 1625 0 ?19 473 475 6 499 -0 0 19 473 25 50 500 1668 0 403 499
 501 0 +.01923091637278275 -.001166435023155214 -.087431659517981 0 0 -1 -.96592
5826289068 -.2588190451025205 0 14 403 1627 0 ?401 389 402 6 500 +0 0 401 389 25
 50 501 1669 0 480 500 502 0 +.01923091637278275 -.001166435023155214 -.07843165
9517981 0 0 1 .965925826289068 .2588190451025205 0 14 480 1629 0 ?503 395 479 6
 501 +0 0 503 395 25 50 502 1670 0 401 501 504 0 +.01818751379865125 -.002973661
29429911 -.0893412932445362 -.5 -.866025403784437 0 .866025403784437 -.5 0 14 40
1 1631 0 ?467 403 399 6 502 -0 0 467 403 25 50 504 1671 0 505 502 506 0 +.011669
0231224391 -.01426401833416246 -.0893412932445362 .5 .866025403784437 0 -.866025
403784437 .5 0 14 505 1633 0 ?494 447 507 6 504 -0 0 494 447 25 50 506 1672 0 44
7 504 508 0 +.0106256205483076 -.01607124460530635 -.0912509269710914 0 0 -1 -.9
65925826289068 -.2588190451025205 0 14 447 1635 0 ?505 488 445 6 506 -0 0 505 48
8 25 50 508 1673 0 509 506 510 0 +.01492826846054518 -.00861883981423078 -.09625
09269710914 0 0 1 .965925826289068 .2588190451025205 0 14 509 1637 0 ?511 512 51
3 6 508 -0 0 511 512 25 50 510 1674 0 395 508 514 0 +.01923091637278275 -.001166
435023155214 -.0912509269710914 0 0 -1 -.965925826289068 -.2588190451025205 0 14
 395 1639 0 ?480 443 394 6 510 -0 0 480 443 25 50 514 1675 0 512 510 515 0 +.020
27431894691425 .000640791247988679 -.0697 -.5 -.866025403784437 0 .8660254037844
37 -.5 0 14 512 1641 0 ?509 516 517 6 514 +370 389 509 516 25 50 515 1676 0 516
 514 20 0 +.02098091637278275 .001864653890090315 -.0997 0 0 1 .965925826289068
 .2588190451025205 0 14 516 1643 0 ?512 19 518 6 515 -0 0 512 19 25 50 20 1677 0
 503 515 7 0 +.02098091637278275 .001864653890090315 -.0697 0 0 1 .9659258262890
68 .2588190451025205 0 14 503 1649 0 ?482 480 519 6 20 +0 0 482 480 25 14 482 16
07 0 ?214 503 520 6 521 -0 0 214 503 25 15 519 1648 0 380 503 0 17 380 0 519 147
 50 51 261 259 0 0 -17 147 0 519 461 380 145 53 248 0 465 -17 50 0 519 380 461 4
8 144 365 0 367 +17 461 0 519 50 147 140 464 460 0 0 +17 144 0 366 368 367 140 5
0 365 0 372 -17 372 0 32 464 216 140 368 373 0 461 -17 464 0 32 213 372 145 461
 460 0 0 -17 216 0 32 372 201 133 239 419 0 368 -17 239 0 374 106 139 199 216 41
9 0 0 +17 53 0 522 251 465 51 147 248 0 377 +17 465 0 522 53 466 145 213 317 0 4
64 -15 522 1652 0 251 19 0 17 466 0 522 465 251 160 359 357 0 0 -17 251 0 522 46
6 53 66 377 249 0 0 +17 359 0 518 264 162 66 466 357 0 251 +15 518 1642 0 264 51
6 0 17 264 0 518 523 359 69 68 257 0 255 +17 162 0 518 359 523 160 165 456 0 213
 -17 523 0 518 162 264 163 71 355 0 455 -17 165 0 32 524 213 163 162 456 0 523 +
17 524 0 32 171 165 157 455 454 0 0 -17 171 0 32 34 524 169 525 449 0 526 +17 45
5 0 517 71 159 163 524 454 0 0 +15 517 1640 0 527 512 0 17 71 0 517 527 455 69 5
23 355 0 264 +17 159 0 517 455 527 157 65 351 0 525 -17 527 0 517 159 71 63 255
 253 0 0 -17 65 0 513 77 525 63 159 351 0 528 +17 525 0 513 65 526 157 171 449 0
 524 -15 513 1636 0 77 509 0 17 526 0 513 525 77 169 122 321 0 529 -17 77 0 513
 526 65 75 528 267 0 122 +17 122 0 120 119 529 75 526 321 0 123 +17 529 0 120 12
2 121 169 34 225 0 0 -15 120 1600 0 119 511 0 17 121 0 120 529 119 30 125 320 0
 35 -17 34 0 32 29 171 30 529 225 0 121 +17 125 0 128 126 35 118 121 320 0 129 +
17 35 0 128 125 37 30 29 36 0 0 -15 128 1598 0 126 530 0 17 37 0 128 35 126 12 1
31 318 0 220 -17 131 0 531 115 220 23 37 318 0 532 +17 220 0 531 131 222 12 33 2
21 0 0 -15 531 1610 0 115 533 0 17 222 0 531 220 115 208 224 235 0 210 -17 115 0
 531 222 131 113 532 305 0 224 +17 224 0 223 117 210 113 222 235 0 230 +17 230 0
 376 532 234 113 117 231 0 0 -17 532 0 376 129 230 23 115 305 0 0 -17 234 0 376
 230 292 116 233 312 0 0 -17 233 0 232 219 227 104 234 312 0 292 +17 129 0 376 1
23 532 118 126 130 0 0 -17 123 0 376 528 129 75 119 124 0 0 -17 528 0 376 255 12
3 63 77 267 0 527 -17 255 0 376 68 528 69 527 253 0 0 +17 68 0 376 377 255 66 26
4 257 0 359 -17 377 0 376 261 68 51 251 249 0 380 -14 533 1611 0 ?229 530 531 6
 495 -0 0 229 530 25 14 229 1603 0 ?238 533 223 6 534 -0 0 238 533 25 14 530 159
9 0 ?533 511 128 6 484 -0 0 533 511 25 50 495 1660 0 533 535 492 0 +.00816902312
243909 -.0203261961606535 -.0937509269710914 .5 .866025403784437 0 -.86602540378
4437 .5 0 50 535 1659 0 443 521 495 0 +.00958221797417612 -.01787847087645025 -.
0893412932445362 -.5 -.866025403784437 0 .866025403784437 -.5 0 14 443 1609 0 ?3
95 370 442 6 535 -0 0 395 370 25 50 521 1658 0 482 536 535 0 +.00958221797417612
 -.01787847087645025 -.0762766943960002 -.5 -.866025403784437 0 .866025403784437
 -.5 0 50 536 1657 0 238 534 521 0 +.00958221797417612 -.01787847087645025 -.070
4108646370098 -.5 -.866025403784437 0 .866025403784437 -.5 0 14 238 1605 0 ?375
 229 232 6 536 -0 0 375 229 25 50 534 1656 0 229 537 536 0 +.00887562054830761 -
.0191023335185519 -.0697 0 0 -1 -.965925826289068 -.2588190451025205 0 50 537 16
55 0 511 484 534 0 +.00958221797417612 -.01787847087645025 -.0979754634855457 -.
5 -.866025403784437 0 .866025403784437 -.5 0 14 511 1601 0 ?530 509 120 6 537 -0
 0 530 509 25 50 484 1654 0 530 481 537 0 +.00887562054830761 -.0191023335185519
 -.0997 0 0 1 .965925826289068 .2588190451025205 0 14 370 1651 0 ?443 375 366 6
 514 +467 512 443 375 25 14 467 1647 0 ?473 401 135 6 514 +389 370 473 401 25 14
 389 1645 0 ?403 494 388 6 514 +512 467 403 494 25 14 494 1613 0 ?389 505 538 6
 492 +0 0 389 505 25 15 538 1612 0 539 494 0 17 539 0 538 204 86 107 304 302 0 0
 -17 204 0 538 432 539 202 109 328 0 436 -17 86 0 538 539 432 84 540 330 0 274 +
17 304 0 385 83 444 84 539 302 0 0 +15 385 1262 0 446 378 541 17 83 0 385 446 30
4 81 274 272 0 347 -17 444 0 385 304 446 107 80 307 0 539 -17 446 0 385 444 83 7
8 271 269 0 0 -17 271 0 445 441 349 81 446 269 0 0 +17 274 0 507 540 347 84 83 2
72 0 304 +17 347 0 507 274 177 81 441 327 0 271 +15 507 1632 0 274 505 0 17 177
 0 507 347 540 175 180 448 0 434 -17 540 0 507 177 274 178 86 330 0 432 -17 180
 0 433 435 434 178 177 448 0 540 +17 432 0 538 86 204 178 435 430 0 0 +15 541 12
63 0 301 378 0 17 301 0 541 542 543 110 491 299 0 0 +17 542 0 541 298 301 101 31
1 309 0 544 -17 543 0 541 301 298 93 289 287 0 491 -17 491 0 486 189 112 93 301
 299 0 0 -17 189 0 486 429 491 187 26 11 0 545 -17 112 0 486 491 429 110 546 324
 0 311 +17 429 0 486 112 189 205 547 427 0 0 +17 546 0 520 548 311 205 112 324 0
 429 -17 311 0 520 546 103 110 542 309 0 301 +15 520 1606 0 311 482 0 17 103 0 5
20 311 548 101 198 326 0 542 +17 548 0 520 103 546 196 207 240 0 549 -17 198 0 4
97 426 544 196 103 326 0 548 -15 497 1616 0 544 488 0 17 426 0 497 97 198 190 54
9 424 0 0 +17 544 0 497 198 97 101 298 296 0 0 -17 97 0 497 544 426 95 550 27 0
 289 +17 298 0 541 543 542 95 544 296 0 0 +17 550 0 489 545 289 190 97 27 0 426
 -17 289 0 489 550 26 95 543 287 0 298 +15 489 1622 0 289 485 0 17 26 0 489 289
 545 93 189 11 0 543 +17 545 0 489 26 550 187 192 411 0 547 -17 192 0 438 549 54
7 190 545 411 0 550 +17 547 0 438 192 207 187 429 427 0 0 -15 438 754 0 547 214
 0 17 207 0 438 547 549 205 548 240 0 546 +17 549 0 438 207 192 196 426 424 0 0
 -17 109 0 442 80 436 107 204 328 0 444 +14 19 1653 0 ?516 478 522 6 7 -0 0 516
 478 25 50 483 3 0 214 0 481 0 +.0149282684605452 -.00861883981423078 -.0847 -.8
66025403784437 .5 0 -.5 -.866025403784437 0 16 21 1597 0 ?44 354 335 8 0 0 1 17
 137 0 135 132 56 42 381 262 0 295 -19 18 1708 0 1 0 10 6 0 S0 74 4 CI16 index_m
ap_offset0 0 1 dCCZ20 16 3 0 0 551 14 2 0 0 0 0 0 0 0 0 0 0 0 0 0 0 0 0 0 81 1 5
51 2659 552 1 0 14 0 0 553 81 1 14 2660 554 1 551 2 0 0 555 80 7 CCCCCDI12 legal
_owners0 17 1 lCZ1 554 13 556 8038 0 0 0 0 0 0 0 0 0 TTTTTTTTTTTTTFTFT10 98 255
 6 555 80 97 114 116 32 56 79 255 14 556 SDL/TYSA_UNAME80 1 552 557 558 8040 0 0
 0 0 3 5 0 0 0 TTTFFFFFFFFFFFFFF2 83 255 3 553 .972549019607843 .529411764705882
 .00392156862745098 79 17 558 SDL/TYSA_COLOUR_280 1 13 559 560 8017 0 0 0 0 0 0
 0 0 0 TTTTTTTTTTTTTFTFT3 84 255 6 15 Part 879 13 560 SDL/TYSA_NAME1 0 
