**ABCDEFGHIJKLMNOPQRSTUVWXYZabcdefghijklmnopqrstuvwxyz**************************
**PARASOLID !"#$%&'()*+,-./:;<=>?@[\]^_`{|}~0123456789**************************
**PART1;
MC=unknown;
MC_MODEL=unknown;
MC_ID=unknown;
OS=unknown;
OS_RELEASE=unknown;
FRU=Parasolid 37.0.173;
APPL=Onshape;
SITE=unknown;
USER=unknown;
FORMAT=text;
GUISE=transmit;
KEY=BTGapi::writeModels_.xmt;
FILE=BTGapi::writeModels_.xmt;
DATE=2024-12-24T11:44:24 (UTC);
**PART2;
SCH=SCH_3700173_36001;
USFLD_SIZE=0;
**PART3;
**END_OF_HEADER*****************************************************************
T51 : TRANSMIT FILE created by modeller version 370017323 SCH_3700173_36001_1300
6231 0 12 36 CCCI7 lattice222 0 CCCI4 mesh1006 0 I8 polyline1008 0 CCCCCCCDI5 ow
ner1040 0 CCCI16 boundary_lattice222 0 CCCI13 boundary_mesh1006 0 I17 boundary_p
olyline1008 0 CCCA16 index_map_offset0 0 1 dA9 index_map82 0 A17 node_id_index_m
ap82 0 A20 schema_embedding_map82 0 A5 child12 0 A14 lowest_node_id0 0 1 dA16 me
sh_offset_data206 0 Z1 79 2 3 0 0 0 0 0 0 0 1e3 1e-8 0 4 5 1 0 1 2 6 0 7 8 0 0 0
 9 10 0 0 0 0 0 0 0 0 81 255 1 2 79 11 1 12 0 0 0 13 70 11 CI9 list_type0 0 1 uI
10 notransmit0 0 1 lCCCDCCDI12 finger_index0 0 1 dI12 finger_block1012 0 CZ3 0 4
 T1 0 0 3 20 1 14 14 13 255 6 5 0 1 0 15 0 0 16 0 50 255 7 21 0 15 17 0 0 +0 0 0
 0 0 1 1 0 0 31 255 8 22 0 10 18 0 0 -0 183697019872103e-32 -216840434497101e-32
 0 0 1 1 0 0 .03 19 9 CCCCCCI5 frame230 0 CA5 owner12 0 Z9 3 0 1 16 0 19 0 V0 16
 255 10 8 0 ?20 0 21 8 0 0 1 17 255 20 0 22 20 20 0 23 10 0 0 +16 21 6 0 ?24 10
 25 18 0 0 1 17 24 0 26 24 24 0 27 21 0 0 +16 25 35 0 ?28 21 29 30 0 0 1 31 18 1
9 0 21 30 8 0 +0 183697019872103e-32 -.1075 0 0 1 1 0 0 .03 31 30 52 0 25 31 18
 0 -0 183697019872103e-32 -216840434497101e-32 0 0 1 1 0 0 .0275 31 31 53 0 29 0
 30 0 +0 183697019872103e-32 -.105 0 0 1 1 0 0 .0275 16 29 33 0 ?32 25 0 31 0 0
 1 17 32 0 33 32 32 0 34 29 0 0 +15 255 33 42 0 32 35 0 17 34 0 36 34 34 0 32 29
 0 0 -15 36 45 0 34 37 38 14 255 37 43 0 ?0 35 36 6 39 -0 0 0 35 19 15 38 46 0 4
0 37 0 17 40 0 38 40 40 0 28 25 0 0 -17 28 0 41 28 28 0 40 25 0 0 +15 41 28 0 28
 15 42 14 15 9 0 ?43 0 41 6 7 +0 0 43 0 19 15 42 10 0 23 15 0 17 23 0 42 23 23 0
 20 10 0 0 -14 43 11 0 ?44 15 45 6 46 -0 0 44 15 19 13 19 4 0 0 0 0 0 0 9 15 14
 44 14 0 ?35 43 26 6 17 +0 0 35 43 19 15 45 13 0 27 43 0 50 46 18 0 43 39 17 0 +
0 0 -.1075 0 0 1 1 0 0 51 255 39 49 0 37 47 46 0 +0 183697019872103e-32 -.1075 0
 0 1 .0275 1 0 0 51 17 20 0 44 46 7 0 +0 183697019872103e-32 -.1075 0 0 1 .03 1
 0 0 50 47 50 0 35 0 39 0 +0 0 -.105 0 0 1 1 0 0 14 35 40 0 ?37 44 33 6 47 +0 0
 37 44 19 17 27 0 45 27 27 0 24 21 0 0 -15 26 16 0 24 44 22 15 22 17 0 20 44 0 1
9 16 1 0 1 0 9 6 0 S0 74 4 CI16 index_map_offset0 0 1 dCCZ20 14 3 0 0 48 12 2 0
 0 0 0 0 0 0 0 0 0 0 0 0 0 0 0 0 81 1 48 77 49 1 0 12 0 0 50 81 1 12 78 51 1 48
 2 0 0 52 80 7 CCCCCDI12 legal_owners0 17 1 lCZ1 51 11 53 8038 0 0 0 0 0 0 0 0 0
 TTTTTTTTTTTTTFTFT10 98 255 3 52 99 97 110 79 255 14 53 SDL/TYSA_UNAME80 1 49 54
 55 8040 0 0 0 0 3 5 0 0 0 TTTFFFFFFFFFFFFFF2 83 255 3 50 .615686274509804 .8117
64705882353 .929411764705882 79 17 55 SDL/TYSA_COLOUR_280 1 11 56 57 8017 0 0 0
 0 0 0 0 0 0 TTTTTTTTTTTTTFTFT3 84 255 3 13 can79 13 57 SDL/TYSA_NAME1 0 
