**ABCDEFGHIJKLMNOPQRSTUVWXYZabcdefghijklmnopqrstuvwxyz**************************
**PARASOLID !"#$%&'()*+,-./:;<=>?@[\]^_`{|}~0123456789**************************
**PART1;
MC=unknown;
MC_MODEL=unknown;
MC_ID=unknown;
OS=unknown;
OS_RELEASE=unknown;
FRU=Parasolid 37.0.173;
APPL=Onshape;
SITE=unknown;
USER=unknown;
FORMAT=text;
GUISE=transmit;
KEY=BTGapi::writeModels_.xmt;
FILE=BTGapi::writeModels_.xmt;
DATE=2024-12-24T11:44:24 (UTC);
**PART2;
SCH=SCH_3700173_36001;
USFLD_SIZE=0;
**PART3;
**END_OF_HEADER*****************************************************************
T51 : TRANSMIT FILE created by modeller version 370017323 SCH_3700173_36001_1300
6231 0 12 36 CCCI7 lattice222 0 CCCI4 mesh1006 0 I8 polyline1008 0 CCCCCCCDI5 ow
ner1040 0 CCCI16 boundary_lattice222 0 CCCI13 boundary_mesh1006 0 I17 boundary_p
olyline1008 0 CCCA16 index_map_offset0 0 1 dA9 index_map82 0 A17 node_id_index_m
ap82 0 A20 schema_embedding_map82 0 A5 child12 0 A14 lowest_node_id0 0 1 dA16 me
sh_offset_data206 0 Z1 4157 2 3 0 0 0 0 0 0 0 1e3 1e-8 0 4 5 1 0 1 2 6 0 7 8 9 0
 0 10 11 12 0 0 0 0 0 0 0 81 255 1 2 4157 13 1 14 0 0 0 15 70 11 CI9 list_type0
 0 1 uI10 notransmit0 0 1 lCCCDCCDI12 finger_index0 0 1 dI12 finger_block1012 0
 CZ3 0 4 T1 0 0 3 20 1 16 16 13 255 6 393 0 1 0 17 0 0 18 0 50 255 7 385 0 19 20
 0 0 +.00766463613780304 .02392809210509365 -.071 -.707106781186548 .70710678118
6547 -4329780281177465e-32 -.707106781186547 -.707106781186548 0 30 255 8 3051 0
 11 21 0 0 +.012 .012 -.0735 .707106781186548 -.707106781186547 4329780281177465
e-32 29 255 9 3742 0 12 22 0 .00811091270347398 .02437436867076455 -.0673 19 9 C
CCCCCI5 frame230 0 CA5 owner12 0 Z10 188 0 1 18 0 23 0 V0 16 255 11 3049 0 ?24 0
 25 8 0 0 1 18 255 12 3738 0 26 0 27 9 ?1 17 255 26 0 28 29 30 12 31 32 0 33 +18
 27 3733 0 34 12 35 22 ?1 17 34 0 36 37 38 27 39 40 0 41 +18 35 3723 0 42 27 43
 44 ?1 29 22 3737 0 27 44 9 .02331370849898475 .00917157287525381 -.065 29 44 37
27 0 35 45 22 .0201317279836453 .003868272016354705 -.0673 29 45 3722 0 43 46 44
 .0201317279836453 .003868272016354705 -.065 18 43 3718 0 47 35 48 45 ?1 29 46 3
712 0 48 49 45 .003868272016354705 .0201317279836453 -.065 18 48 3708 0 50 43 51
 46 ?1 29 49 3707 0 51 52 46 .0190710678118655 .00492893218813452 -.065 18 51 37
03 0 53 48 54 49 ?1 29 52 3697 0 54 55 49 .00492893218813453 .01907106781186545
 -.065 18 54 3693 0 56 51 57 52 ?1 29 55 3692 0 57 58 52 .00492893218813453 .019
07106781186545 -.0673 18 57 3688 0 59 54 60 55 ?1 29 58 3043 0 60 61 55 .0223221
4448783925 .0101631368863993 -.0735 18 60 3041 0 62 57 63 58 ?1 29 61 3026 0 63
 64 58 .00811091270347398 .02437436867076455 -.0735 18 63 3022 0 65 60 66 61 ?1
 29 64 2388 0 66 67 61 .01097217792017196 .0215131034540666 -.071 18 66 2384 0 6
8 63 69 64 ?1 29 67 2353 0 69 70 64 .0215131034540666 .01097217792017198 -.065 1
8 69 2349 0 71 66 72 67 ?1 29 70 1526 0 72 73 67 .00492893218813453 .01907106781
18655 -.004 18 72 1522 0 74 69 75 70 ?1 29 73 645 0 75 76 70 .025795249716301 .0
0953179374901041 -.0735 18 75 641 0 77 72 78 73 ?1 29 76 794 0 78 79 73 .0095317
937490104 .025795249716301 -.0735 18 78 737 0 80 75 81 76 ?1 29 79 1159 0 82 83
 76 .02772445622654175 .0114610002592513 -3436442736591155e-33 18 82 1043 0 84 8
5 86 79 ?1 29 83 1161 0 86 87 79 .0114610002592513 .0277244562265418 -4432292201
261965e-33 18 86 1038 0 88 82 89 83 ?1 29 87 1162 0 81 90 83 .02772445622654175
 .0114610002592513 .0025 18 81 1047 0 91 78 92 87 ?1 29 90 1163 0 92 93 87 .0201
317279836453 .003868272016354705 .0025 18 92 1045 0 94 81 95 90 ?1 29 93 1164 0
 95 96 90 .003868272016354705 .0201317279836453 .0025 18 95 1036 0 97 92 85 93 ?
1 29 96 1165 0 85 98 93 .0114610002592513 .0277244562265418 .0025 18 85 1049 0 9
9 95 82 96 ?1 29 98 1700 0 100 101 96 .00492893218813453 .0190710678118655 0 18
 100 1646 0 102 103 104 98 ?1 29 101 1701 0 104 105 98 .003868272016354705 .0201
317279836453 0 18 104 1642 0 106 100 107 101 ?1 29 105 1702 0 107 108 101 .02013
17279836453 .003868272016354705 0 18 107 1654 0 109 104 110 105 ?1 29 108 1703 0
 110 111 105 .01907106781186545 .00492893218813453 0 18 110 1650 0 112 107 113 1
08 ?1 29 111 1705 0 89 114 108 .003868272016354705 .0201317279836453 -.004 18 89
 1644 0 115 86 116 111 ?1 29 114 1706 0 116 117 111 .0201317279836453 .003868272
016354705 -.004 18 116 1640 0 118 89 103 114 ?1 29 117 1707 0 103 119 114 .01907
106781186545 .00492893218813453 -.004 18 103 1652 0 120 116 100 117 ?1 29 119 20
77 0 113 121 117 .0095317937490104 .025795249716301 -.065 18 113 2035 0 122 110
 123 119 ?1 29 121 2210 0 123 124 119 .025795249716301 .0095317937490104 -.065 1
8 123 2166 0 125 113 126 121 ?1 29 124 2742 0 126 127 121 .01097217792017196 .02
15131034540666 -.065 18 126 2619 0 128 123 129 124 ?1 29 127 2744 0 129 130 124
 .0215131034540666 .01097217792017198 -.071 18 129 2608 0 131 126 132 127 ?1 29
 130 3453 0 132 133 127 .01807950380072 .00592049619928002 -.0735 18 132 3213 0
 134 129 135 130 ?1 29 133 3454 0 135 136 130 .0190710678118655 .004928932188134
52 -.071 18 135 3217 0 137 132 138 133 ?1 29 136 3456 0 138 139 133 .00492893218
813452 .01907106781186545 -.071 18 138 3353 0 140 135 141 136 ?1 29 139 3457 0 1
41 142 136 .00592049619928001 .01807950380071995 -.0735 18 141 3352 0 143 138 14
4 139 ?1 29 142 3458 0 144 145 139 .0101631368863993 .02232214448783925 -.0735 1
8 144 3354 0 146 141 147 142 ?1 29 145 3459 0 147 148 142 .0243743686707646 .008
11091270347399 -.0735 18 147 3229 0 149 144 150 145 ?1 29 148 3460 0 150 151 145
 .0201317279836453 .0038682720163547 -.0735 18 150 3216 0 152 147 153 148 ?1 29
 151 3461 0 153 154 148 .003868272016354695 .0201317279836453 -.0735 18 153 3362
 0 155 150 156 151 ?1 29 154 3465 0 157 158 151 .0101631368863993 .0223221444878
3925 -.071 18 157 3355 0 159 160 161 154 ?1 29 158 3466 0 161 162 154 .005920496
19928001 .01807950380071995 -.071 18 161 3371 0 163 157 164 158 ?1 29 162 3471 0
 156 165 158 .01807950380072 .00592049619928002 -.071 18 156 3214 0 166 153 160
 162 ?1 29 165 3474 0 160 167 162 .02232214448783925 .0101631368863993 -.071 18
 160 3218 0 168 156 157 165 ?1 29 167 4044 0 169 170 165 .0243743686707646 .0081
1091270347399 -.0673 18 169 3966 0 171 172 173 167 ?1 29 170 4045 0 173 174 167
 .02331370849898475 .00917157287525381 -.0673 18 173 3978 0 175 169 0 170 ?1 29
 174 4049 0 172 176 170 .0190710678118655 .00492893218813452 -.0673 18 172 3972
 0 177 178 169 174 ?1 29 176 4052 0 179 180 174 .0091715728752538 .0233137084989
8475 -.0673 18 179 3873 0 181 164 178 176 ?1 29 180 4055 0 178 182 176 .00917157
28752538 .02331370849898475 -.065 18 178 3877 0 183 179 172 180 ?1 29 182 4057 0
 164 0 180 .003868272016354695 .0201317279836453 -.0673 18 164 3885 0 184 161 17
9 182 ?1 17 184 0 185 155 186 164 187 188 0 189 +15 255 185 371 0 186 190 0 17 1
55 0 185 191 184 153 189 192 0 193 +17 186 0 185 184 194 48 115 195 0 187 +17 18
7 0 196 122 31 48 184 188 0 0 -16 188 3851 0 ?184 197 198 199 0 0 1 17 189 0 200
 59 193 164 155 192 0 31 -15 200 3775 0 59 201 0 17 59 0 200 202 189 57 30 197 0
 203 -17 193 0 200 189 204 153 205 206 0 207 -16 192 3714 0 ?155 195 208 209 195
 195 1 17 31 0 196 187 210 164 26 32 0 30 -15 196 2413 0 211 19 0 17 210 0 196 3
1 211 12 65 212 0 0 -16 32 3848 0 ?26 213 214 215 0 0 1 17 30 0 28 26 216 164 59
 197 0 0 +15 28 3902 0 29 217 0 17 216 0 28 30 29 57 181 214 0 218 -16 197 3843
 0 ?30 214 188 219 0 0 1 16 214 3824 0 ?181 32 197 220 0 0 1 30 219 4040 0 197 1
99 221 0 +.00439860210224461 .01960139789775535 -.0673 -.707106781186548 .707106
781186547 1282927060844254e-63 30 199 4041 0 188 222 219 0 +.003868272016354695
 .0201317279836453 -.071 3061616997868385e-32 -306161699786838e-31 -1 30 221 403
9 0 223 219 224 0 +.0091715728752538 .02331370849898475 -.06615 272367624753289e
-47 272367624753289e-47 -1 16 223 3856 0 ?225 226 40 221 0 0 1 30 224 4036 0 226
 221 220 0 +.00864124278936389 .02384403858487465 -.0673 -.707106781186548 .7071
06781186547 1282927060844254e-63 16 226 3861 0 ?33 227 223 224 0 0 1 30 220 4035
 0 214 224 215 0 +.00492893218813452 .01907106781186545 -.0673 .707106781186547
 .707106781186548 385185988877447e-47 30 215 4034 0 32 220 228 0 +.0038682720163
54695 .0201317279836453 -.0673 .707106781186547 .707106781186548 385185988877447
e-47 30 228 4032 0 213 215 229 0 +.00492893218813452 .01907106781186545 -.065 .7
07106781186547 .707106781186548 385185988877447e-47 16 213 3832 0 ?183 230 32 22
8 0 0 1 30 229 4031 0 231 228 232 0 +.0201317279836453 .0038682720163547 -.06615
 272367624753289e-47 272367624753289e-47 -1 16 231 3912 0 ?233 234 235 229 0 0 1
 30 232 4030 0 234 229 236 0 +.0196013978977554 .004398602102244605 -.065 .70710
6781186548 -.707106781186547 -106910588403688e-62 16 234 3920 0 ?237 238 231 232
 0 0 1 30 236 4029 0 238 232 239 0 +.0190710678118655 .00492893218813452 -.06615
 -272367624753289e-47 -272367624753289e-47 1 16 238 3928 0 ?38 240 234 236 0 0 1
 30 239 4028 0 240 236 241 0 +.0196013978977554 .00439860210224461 -.0673 -.7071
06781186548 .707106781186547 4276423536147515e-63 16 240 3936 0 ?242 243 238 239
 0 0 1 30 241 4025 0 244 239 245 0 +.02331370849898475 .00917157287525381 -.0661
5 -272367624753289e-47 -272367624753289e-47 1 16 244 3954 0 ?41 235 0 241 0 0 1
 30 245 4024 0 235 241 246 0 +.02384403858487465 .0086412427893639 -.0673 -.7071
06781186548 .707106781186547 4276423536147515e-63 16 235 3949 0 ?247 231 244 245
 0 0 1 30 246 4023 0 243 245 248 0 +.0201317279836453 .0038682720163547 -.0673 .
707106781186547 .707106781186548 385185988877447e-47 16 243 3917 0 ?171 249 240
 246 0 0 1 30 248 4022 0 249 246 250 0 +.0190710678118655 .00492893218813452 -.0
673 .707106781186547 .707106781186548 385185988877447e-47 16 249 3941 0 ?175 40
 243 248 0 0 1 30 250 4021 0 40 248 251 0 +.0190710678118655 .00492893218813452
 -.065 .707106781186547 .707106781186548 385185988877447e-47 16 40 3933 0 ?34 22
3 249 250 0 0 1 30 251 3447 0 252 250 253 0 +.01857528580629275 .005424714193707
27 -.071 .707106781186548 -.707106781186547 4329780281177465e-32 16 252 3198 0 ?
137 254 255 251 0 0 1 30 253 3446 0 254 251 256 0 +.0202008241442796 .0080418165
4283966 -.071 .707106781186547 .707106781186548 -432978028117747e-31 16 254 3139
 0 ?257 258 252 253 0 0 1 30 256 3444 0 259 253 260 0 +.01807950380072 .00592049
619928001 -.096 0 612323399573677e-31 1 16 259 3168 0 ?166 261 258 256 0 0 1 30
 260 3441 0 258 256 262 0 +.02232214448783925 .0101631368863993 -.096 0 61232339
9573677e-31 1 16 258 3186 0 ?168 259 254 260 0 0 1 30 262 3436 0 230 260 263 0 +
.0024540584539816 .0215459415460184 -.071 .707106781186548 -.707106781186547 432
9780281177465e-32 16 230 3332 0 ?163 264 213 262 0 0 1 30 263 3434 0 264 262 265
 0 +.00804181654283966 .0202008241442796 -.071 .707106781186547 .707106781186548
 -432978028117747e-31 16 264 3342 0 ?266 267 230 263 0 0 1 30 265 3430 0 267 263
 268 0 +.0101631368863993 .02232214448783925 -.096 0 612323399573677e-31 1 16 26
7 3315 0 ?159 255 264 265 0 0 1 30 268 3429 0 255 265 269 0 +.00592049619928001
 .01807950380071995 -.096 0 612323399573677e-31 1 16 255 3309 0 ?270 252 267 268
 0 0 1 30 269 2728 0 261 268 271 0 +.0243743686707646 .00811091270347399 -.068 -
3061616997868385e-32 306161699786838e-31 1 16 261 2603 0 ?272 273 259 269 0 0 1
 30 271 2725 0 273 269 274 0 +.00669669914110088 .02578858223313765 -.065 .70710
6781186548 -.707106781186547 4329780281177465e-32 16 273 2546 0 ?128 275 261 271
 276 276 1 30 274 2724 0 275 271 277 0 +.00669669914110088 .02578858223313765 -.
071 .707106781186548 -.707106781186547 4329780281177465e-32 16 275 2483 0 ?278 2
79 273 274 279 279 1 30 277 2722 0 280 274 281 0 +.0215131034540666 .01097217792
017198 -.071 0 0 1 16 280 2563 0 ?282 283 279 277 0 0 1 30 281 2721 0 283 277 28
4 0 -.01097217792017196 .0215131034540666 -.071 0 0 1 16 283 2560 0 ?285 212 280
 281 0 0 1 30 284 2720 0 212 281 286 0 +.00811091270347398 .02437436867076455 -.
071 3061616997868385e-32 -306161699786838e-31 -1 16 212 2549 0 ?65 287 283 284 0
 0 1 30 286 2204 0 287 284 288 0 +.0239280921050936 .00766463613780303 -.065 .70
7106781186547 .707106781186548 -432978028117747e-31 16 287 2147 0 ?125 289 212 2
86 0 0 1 31 255 288 2071 0 289 286 290 0 +0 2204364238465235e-33 -.065 0 6123233
99573677e-31 1 0 -1 612323399573677e-31 .0275 16 289 2012 0 ?291 292 287 288 0 0
 1 30 290 2070 0 292 288 293 0 +.00766463613780304 .02392809210509365 -.065 .707
106781186547 .707106781186548 -432978028117747e-31 16 292 2006 0 ?122 294 289 29
0 0 0 1 32 255 293 1699 0 295 290 296 297 +.012 .012 -.004 0 0 1 -.7071067811865
47 .707106781186548 0 .01 .009 16 295 1622 0 ?298 299 300 293 0 0 1 30 296 1698
 0 299 293 301 0 +.0196013978977554 .004398602102244615 -.004 .707106781186548 -
.707106781186547 0 141 255 297 302 297 297 293 67 255 302 1682 0 303 304 305 0 +
293 0 0 1 .0081 14 255 303 1664 0 ?306 307 308 6 302 -0 0 306 307 23 67 304 1684
 0 307 309 302 0 +301 0 0 1 .00964078685510933 50 305 1431 0 310 302 311 0 +.013
44683780532 .01344683780532 -.065 0 0 1 1 0 0 14 310 1421 0 ?201 19 312 6 305 +0
 0 201 19 23 67 311 1427 0 313 305 314 0 +315 0 0 1 .0081 14 313 1401 0 ?307 316
 317 6 311 -0 0 307 316 23 50 314 1129 0 318 311 319 0 +.0196013978977554 .00439
860210224461 -.0723 -.707106781186548 -.707106781186548 4329780281177465e-32 .70
7106781186548 -.707106781186548 0 32 315 1444 0 320 321 322 323 +.012 .012 -.071
 0 0 1 -.707106781186548 .707106781186548 0 .01 .009 16 320 1366 0 ?324 325 326
 315 0 0 1 30 321 1688 0 327 328 315 0 +.01907106781186545 .00492893218813453 -.
004 0 0 1 32 322 1440 0 326 315 329 0 +.012 .012 -.065 0 0 1 -.707106781186548 .
707106781186548 0 .01 .009 141 323 311 323 323 315 16 326 1323 0 ?330 320 331 32
2 0 0 1 31 329 1148 0 325 322 332 0 +.012 .012 -3469446951953615e-33 0 612323399
573677e-31 1 0 -1 612323399573677e-31 .01 16 325 1000 0 ?333 334 320 329 0 0 1 3
0 332 1145 0 335 329 336 0 +.0190710678118655 .00492893218813452 -.0723 0 612323
399573677e-31 1 16 335 946 0 ?177 337 334 332 334 334 1 30 336 1142 0 338 332 33
9 0 +.00492893218813453 .01907106781186545 -.0723 0 612323399573677e-31 1 16 338
 932 0 ?203 340 337 336 337 337 1 31 339 1141 0 341 336 342 0 +-1125835535908948
e-30 -2216823521448465e-30 .0025 0 612323399573677e-31 1 0 -1 612323399573677e-3
1 .0300000000000023 16 341 986 0 ?99 343 344 339 0 0 1 30 342 1140 0 343 339 345
 0 +.00766463613780304 .02392809210509365 .0025 .707106781186547 .70710678118654
8 -432978028117747e-31 16 343 952 0 ?346 347 341 342 0 0 1 30 345 1139 0 347 342
 348 0 +.0239280921050936 .00766463613780303 .0025 .707106781186547 .70710678118
6548 -432978028117747e-31 16 347 983 0 ?91 349 343 345 0 0 1 31 348 1138 0 349 3
45 350 0 +.012 .012 .0025 0 612323399573677e-31 1 0 -1 612323399573677e-31 .0115
 16 349 980 0 ?94 351 347 348 0 0 1 31 350 1137 0 340 348 352 0 +-11258355359089
48e-30 -221697660229836e-29 -2734658872465065e-33 0 612323399573677e-31 1 0 -1 6
12323399573677e-31 .0300000000000023 16 340 974 0 ?353 354 338 350 0 0 1 30 352
 1136 0 354 350 355 0 +.00766463613780304 .02392809210509365 -41998319427755e-31
 .707106781186547 .707106781186548 -432978028117747e-31 16 354 994 0 ?356 344 34
0 352 0 0 1 30 355 1135 0 344 352 357 0 +.0239280921050936 .00766463613780303 -3
203982478104685e-33 .707106781186547 .707106781186548 -432978028117747e-31 16 34
4 968 0 ?84 341 354 355 0 0 1 30 357 1134 0 358 355 359 0 +.02772445622654175 .0
114610002592513 .0025 0 -612323399573677e-31 -1 16 358 977 0 ?360 361 351 357 0
 0 1 30 359 1133 0 361 357 362 0 +.0201317279836453 .003868272016354705 .0025 0
 -612323399573677e-31 -1 16 361 971 0 ?363 364 358 359 0 0 1 30 362 1132 0 364 3
59 365 0 +.003868272016354705 .0201317279836453 .0025 0 -612323399573677e-31 -1
 16 364 929 0 ?366 367 361 362 0 0 1 30 365 1131 0 351 362 368 0 +.0114610002592
513 .0277244562265418 .0025 0 -612323399573677e-31 -1 16 351 955 0 ?88 358 349 3
65 0 0 1 30 368 783 0 367 365 369 0 -.025795249716301 .0095317937490104 -.1075 0
 0 1 16 367 706 0 ?370 371 364 368 0 0 1 30 369 782 0 371 368 372 0 -.0095317937
490104 .025795249716301 -.1075 0 0 1 16 371 727 0 ?373 374 367 369 0 0 1 30 372
 355 0 374 369 375 0 +.00766463613780304 .02392809210509365 -.0735 .707106781186
547 .707106781186548 -432978028117747e-31 16 374 314 0 ?80 376 371 372 0 0 1 30
 375 354 0 376 372 377 0 +.0239280921050936 .00766463613780303 -.0735 .707106781
186547 .707106781186548 -432978028117747e-31 16 376 310 0 ?77 378 374 375 0 0 1
 31 377 352 0 378 375 379 0 +.012 .012 -.0735 0 612323399573677e-31 1 0 -1 61232
3399573677e-31 .0115 16 378 298 0 ?191 380 376 377 0 0 1 30 379 388 0 208 377 20
9 0 +.0201317279836453 .003868272016354705 -.071 0 -612323399573677e-31 -1 16 20
8 364 0 ?381 192 380 379 380 380 1 30 209 390 0 195 379 382 0 +.0038682720163547
05 .0201317279836453 -.071 0 -612323399573677e-31 -1 16 195 366 0 ?186 383 192 2
09 192 192 1 31 382 648 0 383 209 384 0 +0 183697019872103e-32 -.0735 0 61232339
9573677e-31 1 0 -1 612323399573677e-31 .0275 16 383 646 0 ?385 386 195 382 0 0 1
 31 384 899 0 386 382 387 0 +.012 .012 -.071 0 612323399573677e-31 1 0 -1 612323
399573677e-31 .01 16 386 897 0 ?388 276 383 384 0 0 1 30 387 3030 0 389 384 390
 0 +.0162426406871193 .0162426406871193 -.0735 .707106781186548 -.70710678118654
7 4329780281177465e-32 16 389 3028 0 ?146 391 276 387 0 0 1 30 390 3034 0 391 38
7 392 0 +.00778272431255099 .01994173191399095 -.0735 .707106781186547 .70710678
1186548 -432978028117747e-31 16 391 3032 0 ?393 206 389 390 0 0 1 30 392 3037 0
 206 390 394 0 +.012 .012 -.0735 .707106781186548 -.707106781186547 432978028117
7465e-32 16 206 3035 0 ?205 395 391 392 0 0 1 30 394 3044 0 395 392 21 0 +.01624
26406871193 .0162426406871193 -.0735 .707106781186548 -.707106781186547 43297802
81177465e-32 16 395 3042 0 ?396 25 206 394 0 0 1 30 21 3048 0 25 394 8 0 +.01994
173191399095 .007782724312551 -.0735 .707106781186547 .707106781186548 -43297802
8117747e-31 16 25 3046 0 ?397 11 395 21 0 0 1 17 397 0 398 168 399 60 400 25 0 4
01 +15 398 3237 0 397 402 0 17 168 0 398 403 397 160 62 258 0 257 +17 399 0 398
 397 403 132 166 259 0 400 -17 400 0 404 24 401 132 397 25 0 0 -17 401 0 404 400
 405 60 396 395 0 0 -15 404 647 0 400 406 0 17 405 0 404 401 407 147 77 376 0 0
 -17 396 0 408 272 62 147 401 395 0 405 +15 408 2683 0 272 409 0 17 272 0 408 24
7 396 169 149 261 0 0 +17 62 0 408 396 278 60 168 258 0 397 -17 278 0 408 62 131
 160 410 275 0 0 +17 131 0 408 278 71 129 282 280 0 410 -17 410 0 411 324 257 12
9 278 275 0 412 -15 411 3074 0 413 414 0 17 324 0 411 415 410 66 412 320 0 0 +17
 257 0 411 410 413 160 403 254 0 278 +17 412 0 317 282 285 129 324 320 0 0 -15 3
17 1404 0 330 313 0 17 282 0 317 330 412 69 131 280 0 416 +17 285 0 317 412 330
 66 417 283 0 324 +17 330 0 317 285 282 126 416 326 0 0 +17 417 0 418 419 68 126
 285 283 0 330 -15 418 2679 0 419 420 0 17 419 0 418 225 417 178 128 273 0 0 -17
 68 0 418 417 159 66 415 279 0 285 +17 159 0 418 68 146 157 421 267 0 266 +17 41
5 0 411 422 324 157 68 279 0 0 -16 279 2492 0 ?68 280 275 274 275 275 1 17 422 0
 411 140 415 161 266 264 0 0 -17 140 0 411 388 422 138 163 230 0 202 -17 266 0 4
23 421 270 157 422 264 0 415 +15 423 3380 0 270 424 0 17 421 0 423 143 266 144 1
59 267 0 393 -17 270 0 423 266 143 161 204 255 0 422 +17 143 0 423 270 421 141 3
93 391 0 204 -17 204 0 200 193 163 141 270 255 0 205 -17 163 0 200 204 202 161 1
40 230 0 270 +17 205 0 404 393 207 141 193 206 0 0 +17 393 0 404 425 205 144 143
 391 0 0 +17 207 0 404 205 24 153 191 378 0 0 -17 24 0 404 207 400 150 134 11 0
 191 +17 191 0 185 426 155 150 207 378 0 0 +17 426 0 185 427 191 35 152 380 0 42
8 -17 427 0 185 118 426 43 233 231 0 381 -17 152 0 429 134 42 150 426 380 0 24 +
16 380 3724 0 ?152 208 378 379 208 208 1 17 428 0 430 242 431 35 171 243 0 233 -
15 430 3995 0 431 432 0 17 242 0 430 175 428 172 42 240 0 0 +17 431 0 430 428 17
5 169 247 235 0 272 -17 171 0 433 149 233 169 428 243 0 431 +17 233 0 433 171 47
 35 427 231 0 0 +15 433 3087 0 149 434 0 17 47 0 433 233 435 43 125 287 0 427 -1
7 435 0 433 47 77 123 370 367 0 436 -17 125 0 312 291 237 123 47 287 0 435 +15 3
12 1424 0 50 310 0 17 291 0 312 50 125 113 436 289 0 0 +17 237 0 312 125 39 43 5
3 234 0 0 +17 39 0 312 237 437 51 34 40 0 38 -17 53 0 438 120 381 51 237 234 0 4
39 -15 438 3770 0 53 318 0 17 120 0 438 440 53 103 439 334 0 441 +17 381 0 438 5
3 440 43 118 208 0 237 +17 439 0 442 443 444 51 120 334 0 39 -15 442 1106 0 445
 316 0 17 443 0 442 446 439 172 38 238 0 447 -17 444 0 442 439 333 103 112 327 0
 0 -16 334 3704 0 ?120 335 325 332 335 335 1 17 333 0 442 444 448 110 449 325 0
 0 +17 112 0 308 102 441 110 444 327 0 450 +16 327 1607 0 ?112 451 452 321 0 0 1
 16 451 1597 0 ?448 331 327 453 0 0 1 16 452 1617 0 ?454 327 455 328 0 0 1 17 45
4 0 185 456 118 107 457 452 0 458 +16 455 1592 0 ?459 452 460 461 0 0 1 30 328 1
689 0 452 462 321 0 +.0201317279836453 .003868272016354705 -.004 0 0 1 30 462 16
90 0 331 453 328 0 +.003868272016354705 .0201317279836453 -.004 0 0 1 16 331 158
7 0 ?106 326 451 462 0 0 1 30 453 1691 0 451 463 462 0 +.00492893218813453 .0190
710678118655 -.004 0 0 1 32 463 1693 0 300 464 453 0 +.012 .012 0 0 0 1 -.707106
781186548 .707106781186548 0 .0115 .01052943725152286 16 300 1625 0 ?465 295 294
 463 0 0 1 32 464 1695 0 294 461 463 0 +.012 .012 0 0 0 1 -.707106781186547 .707
106781186548 0 .01 .009 16 294 1602 0 ?102 300 292 464 0 0 1 30 461 1696 0 455 3
01 464 0 +.004398602102244615 .0196013978977554 -.004 .707106781186548 -.7071067
81186547 0 32 301 1697 0 460 296 461 466 +.012 .012 -.004 0 0 1 -.70710678118654
8 .707106781186548 0 .0115 .01052943725152286 16 460 1584 0 ?467 455 299 301 0 0
 1 141 466 304 466 466 301 17 467 0 468 106 457 89 469 460 0 194 +16 299 1612 0
 ?440 460 295 296 0 0 1 17 440 0 438 381 120 116 470 299 0 0 +17 470 0 471 298 4
69 103 440 299 0 444 -15 471 1675 0 469 306 0 17 298 0 471 472 470 72 441 295 0
 473 +17 469 0 471 470 472 116 467 460 0 440 -17 472 0 471 469 298 89 459 455 0
 467 -17 459 0 474 56 115 72 472 455 0 0 +15 474 3780 0 475 17 0 17 56 0 474 475
 459 54 74 337 0 476 -17 115 0 474 459 475 89 186 195 0 472 -17 475 0 474 115 56
 48 477 198 0 186 -17 477 0 312 183 50 54 475 198 0 0 +16 198 3827 0 ?477 188 22
7 222 0 0 1 16 227 3819 0 ?218 198 226 478 0 0 1 30 222 4042 0 198 478 199 0 +.0
02454058453981595 .0215459415460184 -.065 .707106781186548 -.707106781186547 432
9780281177465e-32 30 478 4043 0 227 0 222 0 +.00492893218813452 .019071067811865
45 -.06615 272367624753289e-47 272367624753289e-47 -1 17 218 0 479 181 480 57 47
6 227 0 0 +15 479 3890 0 481 482 0 17 181 0 479 481 218 179 216 214 0 29 +17 480
 0 479 218 481 54 183 213 0 477 -17 476 0 442 74 203 54 218 227 0 480 -17 74 0 4
42 448 476 72 56 337 0 298 +17 203 0 442 476 445 57 202 338 0 216 +17 445 0 442
 203 446 138 388 386 0 0 -17 202 0 200 163 59 138 203 338 0 445 -17 446 0 442 44
5 443 135 177 335 0 388 -17 388 0 411 413 140 135 445 386 0 0 +17 413 0 411 257
 388 156 137 252 0 0 -17 137 0 429 177 166 135 413 252 0 446 +15 429 3765 0 42 4
83 0 17 177 0 429 42 137 172 446 335 0 443 +17 166 0 429 137 134 156 399 259 0 4
03 +17 134 0 429 166 152 132 24 11 0 399 -17 403 0 398 399 168 156 257 254 0 413
 -17 42 0 429 152 177 35 242 240 0 426 -14 483 1111 0 ?434 318 429 6 314 -318 31
8 434 318 23 14 434 376 0 ?414 483 433 6 20 -0 0 414 483 23 14 318 3771 0 ?483 1
7 438 6 314 -483 483 483 17 23 13 23 189 0 0 0 0 0 0 10 17 14 17 3776 0 ?318 0 4
74 6 319 +201 201 318 0 23 50 319 1128 0 201 314 484 0 +.004398602102244615 .019
6013978977554 -.0723 .707106781186547 .707106781186548 -432978028117747e-31 -.70
7106781186548 .707106781186547 0 14 201 1107 0 ?485 310 200 6 319 +17 17 485 310
 23 14 485 1534 0 ?406 201 486 6 487 -488 488 406 201 23 14 406 265 0 ?190 485 4
04 6 489 -0 0 190 485 23 15 486 1533 0 450 485 0 50 487 1125 0 488 490 491 0 +.0
1386222811327096 .01386222811327098 -358347553686359e-32 0 612323399573677e-31 1
 1 0 0 14 488 1099 0 ?316 492 493 6 487 -485 485 316 492 23 14 316 1103 0 ?313 4
88 442 6 484 -0 0 313 488 23 14 492 1095 0 ?488 494 495 6 490 +0 0 488 494 23 15
 493 1102 0 458 488 0 17 458 0 493 465 496 107 84 344 0 363 -17 465 0 493 356 45
8 104 109 300 0 366 +17 496 0 493 458 356 82 353 340 0 0 -17 84 0 497 498 363 82
 458 344 0 360 +17 363 0 497 84 499 107 456 361 0 0 +15 497 1090 0 84 500 0 17 4
99 0 497 363 498 92 91 347 0 0 -17 456 0 185 501 454 92 363 361 0 499 -17 501 0
 185 366 456 95 94 349 0 502 -17 366 0 185 194 501 104 97 364 0 503 +17 94 0 495
 91 502 92 501 349 0 456 +17 502 0 495 94 99 95 346 343 0 0 -15 495 1098 0 502 4
92 0 17 99 0 495 502 91 85 504 341 0 505 +17 346 0 506 88 97 85 502 343 0 0 +15
 506 1080 0 503 507 0 17 88 0 506 503 346 86 505 351 0 353 +17 97 0 506 346 503
 95 366 364 0 501 -17 503 0 506 97 88 104 356 354 0 0 -17 356 0 493 496 465 86 5
03 354 0 0 +17 505 0 508 504 353 85 88 351 0 346 -17 353 0 508 505 360 86 496 34
0 0 356 +15 508 1094 0 353 494 0 17 360 0 508 353 504 82 498 358 0 496 +17 504 0
 508 360 505 81 99 341 0 0 -17 498 0 497 499 84 81 360 358 0 504 -14 494 1091 0
 ?492 500 508 6 509 -0 0 492 500 23 14 500 1087 0 ?494 507 497 6 491 -0 0 494 50
7 23 51 255 509 1121 0 494 510 511 0 --1125835535908948e-30 -2216823521448465e-3
0 .0025 0 -612323399573677e-31 -1 .0300000000000023 0 1 -612323399573677e-31 50
 510 1122 0 507 491 509 0 +.00766463613780304 .02392809210509365 .0025 -.7071067
81186548 .707106781186547 -4329780281177465e-32 -.707106781186547 -.707106781186
548 0 51 511 776 0 512 509 513 0 +0 183697019872103e-32 -.1075 0 0 1 .0275 1 0 0
 14 512 767 0 ?507 190 514 6 511 +0 0 507 190 23 50 513 3 0 414 511 489 0 +.0138
6222811327096 .01386222811327098 -.071 0 612323399573677e-31 1 1 0 0 14 414 1286
 0 ?19 434 411 6 513 +0 0 19 434 23 50 489 350 0 406 513 515 0 +.013862228113270
96 .01386222811327098 -.0735 0 612323399573677e-31 1 1 0 0 51 515 382 0 190 489
 20 0 -.012 .012 -.071 0 -612323399573677e-31 -1 .0115 0 1 -612323399573677e-31
 14 190 372 0 ?512 406 185 6 515 -0 0 512 406 23 50 20 384 0 434 515 7 0 +.02392
80921050936 .00766463613780303 -.071 -.707106781186548 .707106781186547 -4329780
281177465e-32 -.707106781186547 -.707106781186548 0 14 19 378 0 ?310 414 196 6 7
 +0 0 310 414 23 14 507 1077 0 ?500 512 506 6 510 +0 0 500 512 23 15 514 770 0 3
70 512 0 17 370 0 514 385 436 75 435 367 0 407 +17 385 0 514 516 370 78 407 383
 0 373 +17 436 0 514 370 516 123 291 289 0 0 -17 407 0 404 405 80 75 385 383 0 0
 -17 80 0 404 407 425 78 211 374 0 385 +17 425 0 404 80 393 63 146 389 0 211 -17
 211 0 196 210 373 63 80 374 0 0 -17 373 0 196 211 122 78 516 371 0 0 +17 122 0
 196 373 187 113 50 292 0 516 +17 516 0 514 436 385 113 373 371 0 291 -17 50 0 3
12 477 291 48 122 292 0 475 -17 146 0 418 159 65 144 425 389 0 421 +17 65 0 418
 146 33 63 210 212 0 425 +17 33 0 418 65 225 12 29 226 0 210 +17 225 0 418 33 41
9 179 481 223 0 0 +17 29 0 28 216 26 179 33 226 0 225 -17 481 0 479 480 181 178
 225 223 0 419 -50 491 1123 0 500 487 510 0 +.0239280921050936 .0076646361378030
3 .0025 -.707106781186548 .707106781186547 -4329780281177465e-32 -.7071067811865
47 -.707106781186548 0 17 91 0 495 99 94 81 499 347 0 498 +17 194 0 185 186 366
 89 106 331 0 0 -17 106 0 468 109 467 104 194 331 0 465 +15 468 1659 0 109 307 0
 17 109 0 468 457 106 107 465 300 0 454 -17 457 0 468 467 109 116 454 452 0 469
 -14 307 1656 0 ?303 313 468 6 304 +0 0 303 313 23 50 490 1126 0 492 484 487 0 +
.01386222811327096 .01386222811327098 .0025 0 612323399573677e-31 1 1 0 0 51 484
 1127 0 316 319 490 0 +.012 .012 -.0723 0 612323399573677e-31 1 .01 0 -1 6123233
99573677e-31 17 450 0 486 449 449 110 102 294 0 333 -17 449 0 486 450 450 100 33
3 325 0 0 -17 102 0 308 473 112 100 450 294 0 448 +15 308 1667 0 102 303 0 17 47
3 0 308 441 102 72 448 451 0 459 -17 448 0 442 333 74 100 473 451 0 449 +17 441
 0 308 112 473 103 298 295 0 470 -16 337 3694 0 ?74 338 335 336 338 338 1 17 183
 0 312 128 477 178 480 213 0 481 +17 128 0 312 416 183 126 419 273 0 417 +17 416
 0 312 437 128 69 330 326 0 0 -17 437 0 312 39 416 27 71 276 0 0 +17 71 0 408 13
1 41 69 437 276 0 282 -16 276 2369 0 ?437 389 386 271 273 273 1 17 41 0 408 71 2
47 27 37 244 0 437 +17 247 0 408 41 272 173 431 235 0 0 +17 37 0 36 447 34 173 4
1 244 0 247 -15 36 3991 0 37 517 0 17 447 0 36 38 37 172 175 249 0 242 -17 38 0
 36 34 447 51 443 238 0 0 +17 175 0 430 431 242 173 447 249 0 37 +14 517 3988 0
 ?432 217 36 6 518 +0 0 432 217 23 14 432 3992 0 ?0 517 430 6 519 +0 0 0 517 23
 14 217 3899 0 ?517 482 28 6 520 +0 0 517 482 23 50 518 4010 0 517 519 521 0 +.0
190710678118655 .00492893218813452 -.06615 -.707106781186548 .707106781186547 22
2730392507683e-63 -.707106781186547 -.707106781186548 0 50 519 4011 0 432 522 51
8 0 +.0196013978977554 .00439860210224461 -.0673 2723676247532885e-48 2723676247
532895e-48 -1 0 1 2723676247532895e-48 50 521 3426 0 402 518 523 0 +.02020082414
42796 .00804181654283966 -.096 .707106781186548 -.707106781186547 43297802811774
65e-32 .707106781186547 .707106781186548 0 14 402 3250 0 ?482 424 398 6 521 +0 0
 482 424 23 50 523 3418 0 424 521 524 0 +.00804181654283966 .0202008241442796 -.
096 .707106781186548 -.707106781186547 4329780281177465e-32 .707106781186547 .70
7106781186548 0 14 424 3393 0 ?402 420 423 6 523 -0 0 402 420 23 50 524 2712 0 4
20 523 309 0 +.00669669914110088 .02578858223313765 -.068 .707106781186547 .7071
06781186548 385185988877447e-47 -.707106781186548 .707106781186547 0 14 420 2676
 0 ?424 409 418 6 524 -409 409 424 409 23 50 309 1687 0 306 524 304 0 +.01344683
780532 .01344683780532 -.004 0 0 1 1 0 0 14 306 1672 0 ?409 303 471 6 309 -0 0 4
09 303 23 14 409 2692 0 ?420 306 408 6 524 -420 420 420 306 23 14 482 3887 0 ?21
7 402 479 6 522 +0 0 217 402 23 50 522 4014 0 482 520 519 0 +.00492893218813452
 .01907106781186545 -.06615 .707106781186548 -.707106781186547 -222730392507683e
-63 .707106781186547 .707106781186548 0 50 520 4017 0 217 0 522 0 +.004398602102
24461 .01960139789775535 -.0673 2723676247532885e-48 272367624753289e-47 -1 0 1
 2723676247532895e-48 17 118 0 185 454 427 116 381 208 0 457 -17 77 0 433 435 14
9 75 405 376 0 370 +17 149 0 433 77 171 147 272 261 0 396 -19 18 394 0 1 0 10 6
 0 S0 74 4 CI16 index_map_offset0 0 1 dCCZ20 16 3 0 0 525 14 2 0 0 0 0 0 0 0 0 0
 0 0 0 0 0 0 0 0 81 1 525 4155 526 1 0 14 0 0 527 81 1 14 4156 528 1 525 2 0 0 5
29 80 7 CCCCCDI12 legal_owners0 17 1 lCZ1 528 13 530 8038 0 0 0 0 0 0 0 0 0 TTTT
TTTTTTTTTFTFT10 98 255 14 529 98 97 116 116 101 114 121 32 109 111 100 117 108 1
01 79 255 14 530 SDL/TYSA_UNAME80 1 526 531 532 8040 0 0 0 0 3 5 0 0 0 TTTFFFFFF
FFFFFFFF2 83 255 3 527 .231372549019608 .380392156862745 .705882352941177 79 17
 532 SDL/TYSA_COLOUR_280 1 13 533 534 8017 0 0 0 0 0 0 0 0 0 TTTTTTTTTTTTTFTFT3
 84 255 14 15 battery module79 13 534 SDL/TYSA_NAME1 0 
